<svg width="24" height="24" viewBox="0 0 24 24" xmlns="http://www.w3.org/2000/svg">
<path d="M10.5938 6.84375C10.8525 6.84375 11.0625 6.63375 11.0625 6.375C11.0625 6.11625 10.8525 5.90625 10.5938 5.90625C10.335 5.90625 10.125 6.11625 10.125 6.375C10.125 6.63375 10.335 6.84375 10.5938 6.84375Z"/>
<path d="M10.5938 4.96875C10.8526 4.96875 11.0625 4.75889 11.0625 4.5V2.34375C11.0625 2.08486 10.8526 1.875 10.5938 1.875C10.3349 1.875 10.125 2.08486 10.125 2.34375V4.5C10.125 4.75889 10.3349 4.96875 10.5938 4.96875Z"/>
<path d="M8.71875 6.84375C8.97764 6.84375 9.1875 6.63389 9.1875 6.375V2.34375C9.1875 2.08486 8.97764 1.875 8.71875 1.875C8.45986 1.875 8.25 2.08486 8.25 2.34375V6.375C8.25 6.63389 8.45986 6.84375 8.71875 6.84375Z"/>
<path d="M3.58589 10.7779C2.96625 11.3976 2.625 12.2216 2.625 13.0983V23.5312C2.625 23.7901 2.83486 24 3.09375 24H11.5312C11.7901 24 12 23.7901 12 23.5312V20.7621C13.6956 20.0538 14.8125 18.3959 14.8125 16.5352V16.2188H18.0938C18.3526 16.2188 18.5625 16.0089 18.5625 15.75V3.75H19.5C20.5358 3.75 21.375 2.91098 21.375 1.875C21.375 0.841125 20.5339 0 19.5 0H5.4375C4.40166 0 3.5625 0.839016 3.5625 1.875C3.5625 2.90887 4.40363 3.75 5.4375 3.75H6.375V7.98877L3.58589 10.7779ZM13.875 16.5352C13.875 18.1066 12.8736 19.4961 11.383 19.9928C11.1916 20.0566 11.0625 20.2357 11.0625 20.4375V23.0625H3.5625V13.0983C3.5625 12.472 3.80625 11.8834 4.2488 11.4408L6.375 9.31462V11.967L6.12417 12.2179C5.94113 12.401 5.94113 12.6978 6.12417 12.8808C6.30722 13.0639 6.60403 13.0639 6.78708 12.8808C7.47056 12.1972 9.25223 10.4152 10.0776 9.58983C10.6009 9.06694 11.4074 8.96953 11.9539 9.36352C12.6932 9.89573 12.7319 10.913 12.1373 11.5072C12.1373 11.5072 10.248 13.3965 9.36994 14.2765C8.99944 14.6477 8.86842 15.184 9.02831 15.6771C9.13214 15.995 9.1875 16.3393 9.1875 16.6875C9.1875 17.6273 8.78161 18.5243 8.07398 19.1485C7.87983 19.3197 7.86127 19.616 8.03255 19.8101C8.20327 20.0036 8.49942 20.0233 8.69414 19.8515C9.60347 19.0494 10.125 17.8962 10.125 16.6875C10.125 16.5306 10.1158 16.3741 10.0985 16.2188H13.875V16.5352ZM13.875 15.2812V0.9375H15.75V15.2812H13.875ZM9.90061 15.2812C9.8933 15.1573 9.9398 15.0327 10.0335 14.9387C10.9114 14.059 12.8002 12.1702 12.8001 12.1703C12.8485 12.1219 12.8939 12.0712 12.9375 12.0193V15.2812H9.90061ZM12.9375 9.00834C12.8111 8.8575 12.6656 8.72072 12.5019 8.60287C11.5868 7.94316 10.2598 8.08242 9.41475 8.92683L7.3125 11.0294V8.1832C7.3125 8.18306 7.3125 8.18287 7.3125 8.18273V0.9375H12.9375V9.00834ZM17.625 15.2812H16.6875V0.9375H17.625V15.2812ZM20.4375 1.875C20.4375 2.39278 20.0178 2.8125 19.5 2.8125H18.5625V0.9375H19.5C20.0169 0.9375 20.4375 1.35806 20.4375 1.875ZM5.4375 2.8125C4.92056 2.8125 4.5 2.39194 4.5 1.875C4.5 1.35722 4.91972 0.9375 5.4375 0.9375H6.375V2.8125H5.4375Z"/>
</svg>
