<svg width="24" height="24" viewBox="0 0 24 24" xmlns="http://www.w3.org/2000/svg">
<path d="M22.125 0.75H11.625C11.3269 0.75089 11.0413 0.869703 10.8305 1.08049C10.6197 1.29127 10.5009 1.57691 10.5 1.875V2.25H10.125C9.82691 2.25089 9.54127 2.3697 9.33049 2.58049C9.1197 2.79127 9.00089 3.07691 9 3.375V10.125C9.00089 10.4231 9.1197 10.7087 9.33049 10.9195C9.54127 11.1303 9.82691 11.2491 10.125 11.25H20.625C20.9231 11.2491 21.2087 11.1303 21.4195 10.9195C21.6303 10.7087 21.7491 10.4231 21.75 10.125V9.75H22.125C22.4231 9.74911 22.7087 9.6303 22.9195 9.41951C23.1303 9.20873 23.2491 8.92309 23.25 8.625V1.875C23.2491 1.57691 23.1303 1.29127 22.9195 1.08049C22.7087 0.869703 22.4231 0.75089 22.125 0.75ZM21 10.125C21 10.2245 20.9605 10.3198 20.8902 10.3902C20.8198 10.4605 20.7245 10.5 20.625 10.5H10.125C10.0255 10.5 9.93016 10.4605 9.85983 10.3902C9.78951 10.3198 9.75 10.2245 9.75 10.125V3.375C9.75 3.27554 9.78951 3.18016 9.85983 3.10984C9.93016 3.03951 10.0255 3 10.125 3H20.625C20.7245 3 20.8198 3.03951 20.8902 3.10984C20.9605 3.18016 21 3.27554 21 3.375V10.125ZM22.5 8.625C22.5 8.72446 22.4605 8.81984 22.3902 8.89017C22.3198 8.96049 22.2245 9 22.125 9H21.75V3.375C21.7491 3.07691 21.6303 2.79127 21.4195 2.58049C21.2087 2.3697 20.9231 2.25089 20.625 2.25H11.25V1.875C11.25 1.77554 11.2895 1.68016 11.3598 1.60984C11.4302 1.53951 11.5255 1.5 11.625 1.5H22.125C22.2245 1.5 22.3198 1.53951 22.3902 1.60984C22.4605 1.68016 22.5 1.77554 22.5 1.875V8.625Z" />
<path d="M14.25 5.625V4.875C14.25 4.57663 14.1315 4.29048 13.9205 4.0795C13.7095 3.86853 13.4234 3.75 13.125 3.75H11.625C11.3266 3.75 11.0405 3.86853 10.8295 4.0795C10.6185 4.29048 10.5 4.57663 10.5 4.875V5.625C10.5 5.92337 10.6185 6.20952 10.8295 6.4205C11.0405 6.63147 11.3266 6.75 11.625 6.75H13.125C13.4234 6.75 13.7095 6.63147 13.9205 6.4205C14.1315 6.20952 14.25 5.92337 14.25 5.625ZM13.5 4.875H12.75V4.5H13.125C13.2245 4.5 13.3198 4.53951 13.3902 4.60984C13.4605 4.68016 13.5 4.77554 13.5 4.875ZM11.25 5.625V4.875C11.25 4.77554 11.2895 4.68016 11.3598 4.60984C11.4302 4.53951 11.5255 4.5 11.625 4.5H12V6H11.625C11.5255 6 11.4302 5.96049 11.3598 5.89016C11.2895 5.81984 11.25 5.72446 11.25 5.625ZM13.125 6H12.75V5.625H13.5C13.5 5.72446 13.4605 5.81984 13.3902 5.89016C13.3198 5.96049 13.2245 6 13.125 6Z" />
<path d="M16.875 8.25H16.125C16.0255 8.25 15.9302 8.28951 15.8598 8.35983C15.7895 8.43016 15.75 8.52554 15.75 8.625C15.75 8.72446 15.7895 8.81984 15.8598 8.89017C15.9302 8.96049 16.0255 9 16.125 9H16.875C16.9745 9 17.0698 8.96049 17.1402 8.89017C17.2105 8.81984 17.25 8.72446 17.25 8.625C17.25 8.52554 17.2105 8.43016 17.1402 8.35983C17.0698 8.28951 16.9745 8.25 16.875 8.25Z" />
<path d="M19.125 8.25H18.375C18.2755 8.25 18.1802 8.28951 18.1098 8.35983C18.0395 8.43016 18 8.52554 18 8.625C18 8.72446 18.0395 8.81984 18.1098 8.89017C18.1802 8.96049 18.2755 9 18.375 9H19.125C19.2245 9 19.3198 8.96049 19.3902 8.89017C19.4605 8.81984 19.5 8.72446 19.5 8.625C19.5 8.52554 19.4605 8.43016 19.3902 8.35983C19.3198 8.28951 19.2245 8.25 19.125 8.25Z" />
<path d="M14.625 8.25H13.875C13.7755 8.25 13.6802 8.28951 13.6098 8.35983C13.5395 8.43016 13.5 8.52554 13.5 8.625C13.5 8.72446 13.5395 8.81984 13.6098 8.89017C13.6802 8.96049 13.7755 9 13.875 9H14.625C14.7245 9 14.8198 8.96049 14.8902 8.89017C14.9605 8.81984 15 8.72446 15 8.625C15 8.52554 14.9605 8.43016 14.8902 8.35983C14.8198 8.28951 14.7245 8.25 14.625 8.25Z" />
<path d="M12.375 8.25H11.625C11.5255 8.25 11.4302 8.28951 11.3598 8.35983C11.2895 8.43016 11.25 8.52554 11.25 8.625C11.25 8.72446 11.2895 8.81984 11.3598 8.89017C11.4302 8.96049 11.5255 9 11.625 9H12.375C12.4745 9 12.5698 8.96049 12.6402 8.89017C12.7105 8.81984 12.75 8.72446 12.75 8.625C12.75 8.52554 12.7105 8.43016 12.6402 8.35983C12.5698 8.28951 12.4745 8.25 12.375 8.25Z" />
<path d="M15.75 4.875C15.75 4.77554 15.7105 4.68016 15.6402 4.60984C15.5698 4.53951 15.4745 4.5 15.375 4.5C15.2755 4.5 15.1802 4.53951 15.1098 4.60984C15.0395 4.68016 15 4.77554 15 4.875V5.625C15 5.72446 15.0395 5.81984 15.1098 5.89016C15.1802 5.96049 15.2755 6 15.375 6C15.4745 6 15.5698 5.96049 15.6402 5.89016C15.7105 5.81984 15.75 5.72446 15.75 5.625V4.875Z" />
<path d="M16.875 4.5C16.7755 4.5 16.6802 4.53951 16.6098 4.60984C16.5395 4.68016 16.5 4.77554 16.5 4.875V5.625C16.5 5.72446 16.5395 5.81984 16.6098 5.89016C16.6802 5.96049 16.7755 6 16.875 6C16.9745 6 17.0698 5.96049 17.1402 5.89016C17.2105 5.81984 17.25 5.72446 17.25 5.625V4.875C17.25 4.77554 17.2105 4.68016 17.1402 4.60984C17.0698 4.53951 16.9745 4.5 16.875 4.5Z" />
<path d="M18.375 6C18.4745 6 18.5698 5.96049 18.6402 5.89016C18.7105 5.81984 18.75 5.72446 18.75 5.625V4.875C18.75 4.77554 18.7105 4.68016 18.6402 4.60984C18.5698 4.53951 18.4745 4.5 18.375 4.5C18.2755 4.5 18.1802 4.53951 18.1098 4.60984C18.0395 4.68016 18 4.77554 18 4.875V5.625C18 5.72446 18.0395 5.81984 18.1098 5.89016C18.1802 5.96049 18.2755 6 18.375 6Z" />
<path d="M19.875 4.5C19.7755 4.5 19.6802 4.53951 19.6098 4.60984C19.5395 4.68016 19.5 4.77554 19.5 4.875V5.625C19.5 5.72446 19.5395 5.81984 19.6098 5.89016C19.6802 5.96049 19.7755 6 19.875 6C19.9745 6 20.0698 5.96049 20.1402 5.89016C20.2105 5.81984 20.25 5.72446 20.25 5.625V4.875C20.25 4.77554 20.2105 4.68016 20.1402 4.60984C20.0698 4.53951 19.9745 4.5 19.875 4.5Z" />
<path d="M15.5363 15.7879L8.41125 12.4129C8.36088 12.3889 8.30579 12.3765 8.25 12.3765C8.19421 12.3765 8.13912 12.3889 8.08875 12.4129L0.963752 15.7879C0.887525 15.8248 0.82604 15.8864 0.789305 15.9628C0.752571 16.0391 0.742752 16.1256 0.761447 16.2082C0.780142 16.2908 0.82625 16.3646 0.892264 16.4177C0.958277 16.4708 1.04031 16.4999 1.125 16.5004H1.5V17.6254C1.5 17.7249 1.53951 17.8202 1.60984 17.8906C1.68016 17.9609 1.77555 18.0004 1.875 18.0004H2.625V21.0004H1.875C1.77555 21.0004 1.68016 21.0399 1.60984 21.1102C1.53951 21.1806 1.5 21.2759 1.5 21.3754V22.8754C1.5 22.9749 1.53951 23.0702 1.60984 23.1406C1.68016 23.2109 1.77555 23.2504 1.875 23.2504H14.625C14.7245 23.2504 14.8198 23.2109 14.8902 23.1406C14.9605 23.0702 15 22.9749 15 22.8754V21.3754C15 21.2759 14.9605 21.1806 14.8902 21.1102C14.8198 21.0399 14.7245 21.0004 14.625 21.0004H13.875V18.0004H14.625C14.7245 18.0004 14.8198 17.9609 14.8902 17.8906C14.9605 17.8202 15 17.7249 15 17.6254V16.5004H15.375C15.4597 16.4999 15.5417 16.4708 15.6077 16.4177C15.6738 16.3646 15.7199 16.2908 15.7386 16.2082C15.7573 16.1256 15.7474 16.0391 15.7107 15.9628C15.674 15.8864 15.6125 15.8248 15.5363 15.7879ZM8.25 13.1667L13.7063 15.7504H2.79375L8.25 13.1667ZM14.25 21.7504V22.5004H2.25V21.7504H14.25ZM3.375 21.0004V18.0004H4.125V21.0004H3.375ZM4.875 21.0004V18.0004H5.625V21.0004H4.875ZM6.375 21.0004V18.0004H7.125V21.0004H6.375ZM7.875 21.0004V18.0004H8.625V21.0004H7.875ZM9.375 21.0004V18.0004H10.125V21.0004H9.375ZM10.875 21.0004V18.0004H11.625V21.0004H10.875ZM12.375 21.0004V18.0004H13.125V21.0004H12.375ZM14.25 17.2504H2.25V16.5004H14.25V17.2504Z" />
<path d="M9.375 14.625C9.375 14.4025 9.30902 14.185 9.1854 14C9.06178 13.815 8.88608 13.6708 8.68052 13.5856C8.47495 13.5005 8.24875 13.4782 8.03052 13.5216C7.81229 13.565 7.61184 13.6722 7.4545 13.8295C7.29717 13.9868 7.19003 14.1873 7.14662 14.4055C7.10321 14.6238 7.12549 14.85 7.21064 15.0555C7.29578 15.2611 7.43998 15.4368 7.62498 15.5604C7.80999 15.684 8.0275 15.75 8.25 15.75C8.54837 15.75 8.83451 15.6315 9.04549 15.4205C9.25647 15.2095 9.375 14.9234 9.375 14.625ZM8.25 15C8.17583 15 8.10333 14.978 8.04166 14.9368C7.97999 14.8956 7.93193 14.837 7.90354 14.7685C7.87516 14.7 7.86774 14.6246 7.8822 14.5518C7.89667 14.4791 7.93239 14.4123 7.98483 14.3598C8.03728 14.3074 8.1041 14.2717 8.17684 14.2572C8.24958 14.2427 8.32498 14.2502 8.3935 14.2785C8.46203 14.3069 8.52059 14.355 8.5618 14.4167C8.60301 14.4783 8.625 14.5508 8.625 14.625C8.625 14.7245 8.58549 14.8198 8.51516 14.8902C8.44484 14.9605 8.34945 15 8.25 15Z" />
<path d="M1.125 11.6249H2.625C2.72446 11.6249 2.81984 11.5854 2.89016 11.515C2.96049 11.4447 3 11.3493 3 11.2499V7.49986H5.25V8.24986C5.25003 8.32112 5.27035 8.39089 5.3086 8.45101C5.34685 8.51113 5.40143 8.55911 5.46596 8.58933C5.53049 8.61954 5.6023 8.63075 5.67297 8.62164C5.74364 8.61252 5.81025 8.58346 5.865 8.53786L8.115 6.66286C8.1572 6.62767 8.19115 6.58363 8.21445 6.53386C8.23775 6.48409 8.24983 6.42981 8.24983 6.37486C8.24983 6.31991 8.23775 6.26563 8.21445 6.21586C8.19115 6.16609 8.1572 6.12205 8.115 6.08686L5.865 4.21186C5.81025 4.16626 5.74364 4.1372 5.67297 4.12808C5.6023 4.11897 5.53049 4.13017 5.46596 4.16039C5.40143 4.19061 5.34685 4.23859 5.3086 4.29871C5.27035 4.35883 5.25003 4.4286 5.25 4.49986V5.24986H1.875C1.57663 5.24986 1.29048 5.36839 1.0795 5.57936C0.868526 5.79034 0.75 6.07649 0.75 6.37486V11.2499C0.75 11.3493 0.789509 11.4447 0.859835 11.515C0.930161 11.5854 1.02554 11.6249 1.125 11.6249ZM1.5 6.37486C1.5 6.2754 1.53951 6.18002 1.60984 6.10969C1.68016 6.03937 1.77554 5.99986 1.875 5.99986H5.625C5.72446 5.99986 5.81984 5.96035 5.89016 5.89002C5.96049 5.8197 6 5.72432 6 5.62486V5.30048L7.28925 6.37486L6 7.44923V7.12486C6 7.0254 5.96049 6.93002 5.89016 6.85969C5.81984 6.78937 5.72446 6.74986 5.625 6.74986H2.625C2.52554 6.74986 2.43016 6.78937 2.35984 6.85969C2.28951 6.93002 2.25 7.0254 2.25 7.12486V10.8749H1.5V6.37486Z" />
<path d="M22.125 14.25H20.625C20.5255 14.25 20.4302 14.2895 20.3598 14.3598C20.2895 14.4302 20.25 14.5255 20.25 14.625V18.375H18V17.625C18.0001 17.5537 17.9799 17.4838 17.9417 17.4236C17.9035 17.3634 17.8489 17.3153 17.7844 17.2849C17.7198 17.2546 17.648 17.2434 17.5772 17.2525C17.5065 17.2615 17.4398 17.2906 17.385 17.3363L15.135 19.2113C15.0925 19.2464 15.0584 19.2906 15.0349 19.3405C15.0114 19.3904 14.9993 19.4449 14.9993 19.5C14.9993 19.5552 15.0114 19.6096 15.0349 19.6595C15.0584 19.7095 15.0925 19.7536 15.135 19.7888L17.385 21.6638C17.4525 21.7197 17.5374 21.7502 17.625 21.75C17.6793 21.75 17.733 21.7385 17.7825 21.7163C17.8476 21.6861 17.9027 21.638 17.9412 21.5775C17.9798 21.517 18.0002 21.4467 18 21.375V20.625H21.375C21.6731 20.6241 21.9587 20.5053 22.1695 20.2945C22.3803 20.0837 22.4991 19.7981 22.5 19.5V14.625C22.5 14.5255 22.4605 14.4302 22.3902 14.3598C22.3198 14.2895 22.2245 14.25 22.125 14.25ZM21.75 19.5C21.75 19.5995 21.7105 19.6948 21.6402 19.7652C21.5698 19.8355 21.4745 19.875 21.375 19.875H17.625C17.5255 19.875 17.4302 19.9145 17.3598 19.9848C17.2895 20.0552 17.25 20.1506 17.25 20.25V20.5725L15.96 19.5L17.25 18.4275V18.75C17.25 18.8495 17.2895 18.9448 17.3598 19.0152C17.4302 19.0855 17.5255 19.125 17.625 19.125H20.625C20.7245 19.125 20.8198 19.0855 20.8902 19.0152C20.9605 18.9448 21 18.8495 21 18.75V15H21.75V19.5Z" />
</svg>
