<svg width="16" height="16" viewBox="0 0 16 16" fill="none" xmlns="http://www.w3.org/2000/svg">
<path d="M8 1.33301C5.42 1.33301 3.33334 3.41967 3.33334 5.99967C3.33334 9.49967 8 14.6663 8 14.6663C8 14.6663 12.6667 9.49967 12.6667 5.99967C12.6667 3.41967 10.58 1.33301 8 1.33301ZM4.66667 5.99967C4.66667 4.15967 6.16 2.66634 8 2.66634C9.84 2.66634 11.3333 4.15967 11.3333 5.99967C11.3333 7.91967 9.41334 10.793 8 12.5863C6.61334 10.8063 4.66667 7.89967 4.66667 5.99967Z" fill="black"/>
<path d="M8 7.66634C8.92048 7.66634 9.66667 6.92015 9.66667 5.99967C9.66667 5.0792 8.92048 4.33301 8 4.33301C7.07953 4.33301 6.33334 5.0792 6.33334 5.99967C6.33334 6.92015 7.07953 7.66634 8 7.66634Z" fill="black"/>
</svg>
