<svg width="14" height="14" viewBox="0 0 14 14" fill="none" xmlns="http://www.w3.org/2000/svg">
<path d="M7.00025 0.333008C3.32025 0.333008 0.33358 3.31967 0.33358 6.99967C0.33358 10.6797 3.32025 13.6663 7.00025 13.6663C10.6802 13.6663 13.6669 10.6797 13.6669 6.99967C13.6669 3.31967 10.6802 0.333008 7.00025 0.333008ZM9.40691 4.55967C10.1202 4.55967 10.6936 5.13301 10.6936 5.84634C10.6936 6.55968 10.1202 7.13301 9.40691 7.13301C8.69358 7.13301 8.12025 6.55968 8.12025 5.84634C8.11358 5.13301 8.69358 4.55967 9.40691 4.55967ZM5.40691 3.50634C6.27358 3.50634 6.98025 4.21301 6.98025 5.07967C6.98025 5.94634 6.27358 6.65301 5.40691 6.65301C4.54025 6.65301 3.83358 5.94634 3.83358 5.07967C3.83358 4.20634 4.53358 3.50634 5.40691 3.50634ZM5.40691 9.59301V12.093C3.80691 11.593 2.54025 10.3597 1.98025 8.78634C2.68025 8.03967 4.42691 7.65967 5.40691 7.65967C5.76025 7.65967 6.20691 7.71301 6.67358 7.80634C5.58025 8.38634 5.40691 9.15301 5.40691 9.59301ZM7.00025 12.333C6.82025 12.333 6.64691 12.3263 6.47358 12.3063V9.59301C6.47358 8.64634 8.43358 8.17301 9.40691 8.17301C10.1202 8.17301 11.3536 8.43301 11.9669 8.93967C11.1869 10.9197 9.26025 12.333 7.00025 12.333Z" fill="black"/>
</svg>
