<svg width="17" height="16" viewBox="0 0 17 16" fill="none" xmlns="http://www.w3.org/2000/svg">
<path d="M13.3353 3.99967H11.8819C11.9553 3.79301 12.0019 3.56634 12.0019 3.33301C12.0019 2.22634 11.1086 1.33301 10.0019 1.33301C9.30195 1.33301 8.69528 1.69301 8.33528 2.23301L8.00195 2.67967L7.66861 2.22634C7.30861 1.69301 6.70195 1.33301 6.00195 1.33301C4.89528 1.33301 4.00195 2.22634 4.00195 3.33301C4.00195 3.56634 4.04861 3.79301 4.12195 3.99967H2.66861C1.92861 3.99967 1.34195 4.59301 1.34195 5.33301L1.33528 12.6663C1.33528 13.4063 1.92861 13.9997 2.66861 13.9997H13.3353C14.0753 13.9997 14.6686 13.4063 14.6686 12.6663V5.33301C14.6686 4.59301 14.0753 3.99967 13.3353 3.99967ZM10.0019 2.66634C10.3686 2.66634 10.6686 2.96634 10.6686 3.33301C10.6686 3.69967 10.3686 3.99967 10.0019 3.99967C9.63528 3.99967 9.33528 3.69967 9.33528 3.33301C9.33528 2.96634 9.63528 2.66634 10.0019 2.66634ZM6.00195 2.66634C6.36861 2.66634 6.66861 2.96634 6.66861 3.33301C6.66861 3.69967 6.36861 3.99967 6.00195 3.99967C5.63528 3.99967 5.33528 3.69967 5.33528 3.33301C5.33528 2.96634 5.63528 2.66634 6.00195 2.66634ZM13.3353 12.6663H2.66861V11.333H13.3353V12.6663ZM13.3353 9.33301H2.66861V5.33301H6.05528L4.66861 7.21967L5.74861 7.99967L7.33528 5.83967L8.00195 4.93301L8.66861 5.83967L10.2553 7.99967L11.3353 7.21967L9.94862 5.33301H13.3353V9.33301Z" fill="black"/>
</svg>
