<svg width="17" height="16" viewBox="0 0 17 16" fill="none" xmlns="http://www.w3.org/2000/svg">
<path fill-rule="evenodd" clip-rule="evenodd" d="M14.0012 2.66699H10.0012C9.23422 2.66965 8.50551 3.00242 8.00122 3.58033C7.49692 3.00242 6.76821 2.66965 6.00122 2.66699H2.00122C1.63303 2.66699 1.33455 2.96547 1.33455 3.33366V12.0003C1.33455 12.3685 1.63303 12.667 2.00122 12.667H5.72788C5.90278 12.6677 6.07038 12.7372 6.19455 12.8603L6.47455 13.1403C6.59872 13.2635 6.76632 13.3329 6.94122 13.3337H9.06122C9.23611 13.3329 9.40371 13.2635 9.52788 13.1403L9.80788 12.8603C9.93206 12.7372 10.0997 12.6677 10.2745 12.667H14.0012C14.3694 12.667 14.6679 12.3685 14.6679 12.0003V3.33366C14.6679 2.96547 14.3694 2.66699 14.0012 2.66699ZM7.33455 11.027C6.92943 10.792 6.46956 10.6678 6.00122 10.667H2.66788V4.00033H6.00122C6.7376 4.00033 7.33455 4.59728 7.33455 5.33366V11.027ZM10.0012 10.667H13.3345V4.00033H10.0012C9.26484 4.00033 8.66788 4.59728 8.66788 5.33366V11.027C9.073 10.792 9.53287 10.6678 10.0012 10.667Z" fill="black"/>
</svg>
