<svg width="17" height="16" viewBox="0 0 17 16" fill="none" xmlns="http://www.w3.org/2000/svg">
<g clip-path="url(#clip0)">
<path d="M11.1146 8.75391C12.0279 9.37391 12.6679 10.2139 12.6679 11.3339V13.3339H15.3346V11.3339C15.3346 9.88057 12.9546 9.02057 11.1146 8.75391Z" fill="black"/>
<path d="M10.0012 8.00033C11.4746 8.00033 12.6679 6.80699 12.6679 5.33366C12.6679 3.86033 11.4746 2.66699 10.0012 2.66699C9.6879 2.66699 9.39456 2.73366 9.11456 2.82699C9.6679 3.51366 10.0012 4.38699 10.0012 5.33366C10.0012 6.28033 9.6679 7.15366 9.11456 7.84033C9.39456 7.93366 9.6879 8.00033 10.0012 8.00033Z" fill="black"/>
<path d="M6.00123 8.00033C7.47456 8.00033 8.6679 6.80699 8.6679 5.33366C8.6679 3.86033 7.47456 2.66699 6.00123 2.66699C4.5279 2.66699 3.33456 3.86033 3.33456 5.33366C3.33456 6.80699 4.5279 8.00033 6.00123 8.00033ZM6.00123 4.00033C6.73456 4.00033 7.33456 4.60033 7.33456 5.33366C7.33456 6.06699 6.73456 6.66699 6.00123 6.66699C5.2679 6.66699 4.6679 6.06699 4.6679 5.33366C4.6679 4.60033 5.2679 4.00033 6.00123 4.00033Z" fill="black"/>
<path d="M6.00123 8.66699C4.22123 8.66699 0.667892 9.56033 0.667892 11.3337V13.3337H11.3346V11.3337C11.3346 9.56033 7.78123 8.66699 6.00123 8.66699ZM10.0012 12.0003H2.00123V11.3403C2.13456 10.8603 4.20123 10.0003 6.00123 10.0003C7.80123 10.0003 9.86789 10.8603 10.0012 11.3337V12.0003Z" fill="black"/>
</g>
<defs>
<clipPath id="clip0">
<rect width="16" height="16" fill="white" transform="translate(0.0012207)"/>
</clipPath>
</defs>
</svg>
