<svg width="6" height="10" viewBox="0 0 6 10" fill="none" xmlns="http://www.w3.org/2000/svg">
<path d="M2.74979 7.55C1.71979 7.55 1.31479 7.09 1.25979 6.5H0.15979C0.21979 7.595 1.03979 8.21 1.99979 8.415V9.5H3.49979V8.425C4.47479 8.24 5.24979 7.675 5.24979 6.65C5.24979 5.23 4.03479 4.745 2.89979 4.45C1.76479 4.155 1.39979 3.85 1.39979 3.375C1.39979 2.83 1.90479 2.45 2.74979 2.45C3.63979 2.45 3.96979 2.875 3.99979 3.5H5.10479C5.06979 2.64 4.54479 1.85 3.49979 1.595V0.5H1.99979V1.58C1.02979 1.79 0.24979 2.42 0.24979 3.385C0.24979 4.54 1.20479 5.115 2.59979 5.45C3.84979 5.75 4.09979 6.19 4.09979 6.655C4.09979 7 3.85479 7.55 2.74979 7.55Z" fill="white"/>
</svg>
