<svg width="16" height="16" viewBox="0 0 16 16" fill="none" xmlns="http://www.w3.org/2000/svg">
<path d="M7.33355 11.3335H8.66688V7.3335H7.33355V11.3335ZM8.00022 1.3335C4.32022 1.3335 1.33355 4.32016 1.33355 8.00016C1.33355 11.6802 4.32022 14.6668 8.00022 14.6668C11.6802 14.6668 14.6669 11.6802 14.6669 8.00016C14.6669 4.32016 11.6802 1.3335 8.00022 1.3335ZM8.00022 13.3335C5.06022 13.3335 2.66688 10.9402 2.66688 8.00016C2.66688 5.06016 5.06022 2.66683 8.00022 2.66683C10.9402 2.66683 13.3335 5.06016 13.3335 8.00016C13.3335 10.9402 10.9402 13.3335 8.00022 13.3335ZM7.33355 6.00016H8.66688V4.66683H7.33355V6.00016Z" fill="black"/>
<path d="M7.33354 4.6665H8.66688V5.99984H7.33354V4.6665ZM7.33354 7.33317H8.66688V11.3332H7.33354V7.33317Z" fill="black"/>
<path d="M8.00022 1.3335C4.32022 1.3335 1.33355 4.32016 1.33355 8.00016C1.33355 11.6802 4.32022 14.6668 8.00022 14.6668C11.6802 14.6668 14.6669 11.6802 14.6669 8.00016C14.6669 4.32016 11.6802 1.3335 8.00022 1.3335ZM8.00022 13.3335C5.06022 13.3335 2.66688 10.9402 2.66688 8.00016C2.66688 5.06016 5.06022 2.66683 8.00022 2.66683C10.9402 2.66683 13.3335 5.06016 13.3335 8.00016C13.3335 10.9402 10.9402 13.3335 8.00022 13.3335Z" fill="black"/>
</svg>
