<svg width="24" height="24" viewBox="0 0 24 24" fill="none" xmlns="http://www.w3.org/2000/svg">
<path d="M23.9663 13.3592C23.9663 13.359 23.9663 13.359 23.9662 13.3589L19.4349 1.98117C19.3387 1.73942 19.0647 1.6214 18.823 1.71757C18.8228 1.71763 18.8226 1.71769 18.8224 1.71781L0.439561 9.0377C0.364593 9.07009 0.299577 9.12179 0.25111 9.18752C0.0982298 9.26696 0.00164894 9.4242 0 9.59645V21.8457C0 22.1059 0.210947 22.3169 0.471126 22.3169H20.2584C20.5186 22.3169 20.7296 22.1059 20.7296 21.8457V15.1557L23.7033 13.9713C23.945 13.8749 24.0627 13.6009 23.9663 13.3592ZM19.7873 21.3746H0.942253V10.0676H19.7873V21.3746ZM7.86074 9.12768L15.7493 5.98433C16.4533 6.72435 17.4288 7.14495 18.4502 7.14895L19.237 9.12768H7.86074ZM20.7296 14.1438V9.59645C20.7296 9.33627 20.5186 9.12533 20.2584 9.12533H20.2509L19.2526 6.61799C19.2415 6.59709 19.2286 6.57718 19.2139 6.55863C19.1634 6.33172 18.9533 6.1769 18.7216 6.19586C17.7712 6.28249 16.8415 5.88215 16.2515 5.13206C16.1047 4.95085 15.8466 4.9058 15.647 5.02653C15.6247 5.02918 15.6025 5.0333 15.5806 5.03878L5.94985 8.87375C5.83331 8.91945 5.74009 9.01008 5.69121 9.12533H2.76645L18.7339 2.76748L22.917 13.2712L20.7296 14.1438Z" fill="#B5B5B5"/>
<path d="M2.22091 18.1935C3.1356 18.4638 3.85136 19.1787 4.12284 20.093C4.18238 20.2926 4.36594 20.4294 4.57418 20.4294C4.59862 20.4279 4.62288 20.4243 4.64673 20.4186C4.66788 20.4246 4.68949 20.429 4.71128 20.4318H16.0183C16.0377 20.4293 16.0569 20.4253 16.0758 20.42C16.3112 20.4773 16.5484 20.3329 16.6057 20.0975C16.6059 20.0966 16.6061 20.0958 16.6063 20.0949C16.8771 19.1797 17.5929 18.4638 18.5082 18.193C18.7302 18.1252 18.8681 17.904 18.8314 17.6748C18.8377 17.6519 18.8422 17.6286 18.8451 17.605V13.836C18.8423 13.8124 18.8376 13.7891 18.8309 13.7663C18.8679 13.537 18.7299 13.3157 18.5077 13.2481C17.5925 12.9773 16.8768 12.2612 16.6067 11.3457C16.5386 11.1222 16.3152 10.9839 16.0847 11.0225C16.0629 11.0164 16.0407 11.012 16.0183 11.0093H4.71128C4.68755 11.0121 4.66405 11.0168 4.64108 11.0234C4.41194 10.9869 4.19086 11.1248 4.12284 11.3466C3.85189 12.2617 3.13607 12.9773 2.22091 13.2481C1.99895 13.3159 1.86102 13.5371 1.89771 13.7663C1.89159 13.7892 1.88717 13.8125 1.88452 13.836V17.605C1.88723 17.6272 1.89165 17.6491 1.89771 17.6705C1.85908 17.9012 1.9973 18.1249 2.22091 18.1935ZM2.82677 14.0273C3.7728 13.6473 4.52259 12.8975 4.90256 11.9515H15.8266C16.2067 12.8975 16.9567 13.6473 17.9028 14.0273V17.4138C16.9571 17.7941 16.2074 18.5438 15.827 19.4895H4.90256C4.52218 18.5438 3.7725 17.7941 2.82677 17.4138V14.0273Z" fill="#B5B5B5"/>
<path d="M10.3648 18.5471C11.926 18.5471 13.1916 17.2815 13.1916 15.7203C13.1916 14.1591 11.926 12.8936 10.3648 12.8936C8.80365 12.8936 7.53809 14.1591 7.53809 15.7203C7.53962 17.2808 8.8043 18.5455 10.3648 18.5471ZM10.3648 13.8358C11.4056 13.8358 12.2493 14.6795 12.2493 15.7203C12.2493 16.7611 11.4056 17.6048 10.3648 17.6048C9.32407 17.6048 8.48034 16.7611 8.48034 15.7203C8.48034 14.6795 9.32407 13.8358 10.3648 13.8358Z" fill="#B5B5B5"/>
<path d="M5.18228 16.4271C5.57254 16.4271 5.88896 16.1106 5.88896 15.7204C5.88896 15.3301 5.57254 15.0137 5.18228 15.0137C4.79201 15.0137 4.47559 15.3301 4.47559 15.7204C4.47559 16.1107 4.79201 16.4271 5.18228 16.4271ZM5.18228 15.4848C5.31236 15.4848 5.41784 15.5903 5.41784 15.7204C5.41784 15.8505 5.31236 15.9559 5.18228 15.9559C5.05219 15.9559 4.94671 15.8505 4.94671 15.7204C4.94671 15.5903 5.05219 15.4848 5.18228 15.4848Z" fill="#B5B5B5"/>
<path d="M15.5473 16.4271C15.9375 16.4271 16.254 16.1106 16.254 15.7204C16.254 15.3301 15.9375 15.0137 15.5473 15.0137C15.157 15.0137 14.8406 15.3301 14.8406 15.7204C14.8406 16.1107 15.157 16.4271 15.5473 16.4271ZM15.5473 15.4848C15.6774 15.4848 15.7828 15.5903 15.7828 15.7204C15.7828 15.8505 15.6774 15.9559 15.5473 15.9559C15.4172 15.9559 15.3117 15.8505 15.3117 15.7204C15.3117 15.5903 15.4172 15.4848 15.5473 15.4848Z" fill="#B5B5B5"/>
</svg>
