<svg width="15" height="14" viewBox="0 0 15 14" fill="none" xmlns="http://www.w3.org/2000/svg">
<path d="M10.3669 7.66634C10.8669 7.66634 11.3069 7.39301 11.5336 6.97967L13.9202 2.65301C14.1669 2.21301 13.8469 1.66634 13.3402 1.66634H3.47357L2.84691 0.333008H0.666908V1.66634H2.00024L4.40024 6.72634L3.50024 8.35301C3.01357 9.24634 3.65357 10.333 4.66691 10.333H12.6669V8.99967H4.66691L5.40024 7.66634H10.3669ZM4.10691 2.99967H12.2069L10.3669 6.33301H5.68691L4.10691 2.99967ZM4.66691 10.9997C3.93357 10.9997 3.34024 11.5997 3.34024 12.333C3.34024 13.0663 3.93357 13.6663 4.66691 13.6663C5.40024 13.6663 6.00024 13.0663 6.00024 12.333C6.00024 11.5997 5.40024 10.9997 4.66691 10.9997ZM11.3336 10.9997C10.6002 10.9997 10.0069 11.5997 10.0069 12.333C10.0069 13.0663 10.6002 13.6663 11.3336 13.6663C12.0669 13.6663 12.6669 13.0663 12.6669 12.333C12.6669 11.5997 12.0669 10.9997 11.3336 10.9997Z" fill="black"/>
</svg>
