<svg width="16" height="16" viewBox="0 0 16 16" fill="none" xmlns="http://www.w3.org/2000/svg">
<g clip-path="url(#clip0)">
<path d="M2.00036 4.00033H10.667C11.0337 4.00033 11.3337 3.70033 11.3337 3.33366C11.3337 2.96699 11.0337 2.66699 10.667 2.66699H2.00036C1.63369 2.66699 1.33369 2.96699 1.33369 3.33366C1.33369 3.70033 1.63369 4.00033 2.00036 4.00033Z" fill="black"/>
<path d="M10.0004 11.3337H11.3337V9.33366H11.4537C11.8737 9.33366 12.187 8.94699 12.107 8.53366L11.4404 5.20033C11.3804 4.89366 11.107 4.66699 10.787 4.66699H1.88036C1.56036 4.66699 1.28703 4.89366 1.22703 5.20033L0.560359 8.53366C0.480359 8.94699 0.793693 9.33366 1.21369 9.33366H1.33369V12.667C1.33369 13.0337 1.63369 13.3337 2.00036 13.3337H6.66703C7.03369 13.3337 7.33369 13.0337 7.33369 12.667V9.33366H10.0004V11.3337ZM6.00036 12.0003H2.66703V9.33366H6.00036V12.0003Z" fill="black"/>
<path d="M14.667 12H13.3337V10.6667C13.3337 10.3 13.0337 10 12.667 10C12.3004 10 12.0004 10.3 12.0004 10.6667V12H10.667C10.3004 12 10.0004 12.3 10.0004 12.6667C10.0004 13.0333 10.3004 13.3333 10.667 13.3333H12.0004V14.6667C12.0004 15.0333 12.3004 15.3333 12.667 15.3333C13.0337 15.3333 13.3337 15.0333 13.3337 14.6667V13.3333H14.667C15.0337 13.3333 15.3337 13.0333 15.3337 12.6667C15.3337 12.3 15.0337 12 14.667 12Z" fill="black"/>
</g>
<defs>
<clipPath id="clip0">
<rect width="16" height="16" fill="white" transform="translate(0.000366211)"/>
</clipPath>
</defs>
</svg>
