<svg width="32" height="32" viewBox="0 0 32 32" fill="none" xmlns="http://www.w3.org/2000/svg">
<rect width="32" height="32" rx="6" fill="white"/>
<path d="M5.64697 5.75781L8.66846 13.2988L11.6899 5.75781H13.2705V15H12.0518V11.4009L12.166 7.51611L9.13184 15H8.19873L5.1709 7.53516L5.2915 11.4009V15H4.07275V5.75781H5.64697ZM19.4785 15C19.4108 14.8646 19.3558 14.6234 19.3135 14.2764C18.7676 14.8434 18.1159 15.127 17.3584 15.127C16.6813 15.127 16.1248 14.9365 15.689 14.5557C15.2573 14.1706 15.0415 13.6839 15.0415 13.0957C15.0415 12.3805 15.3123 11.8262 15.854 11.4326C16.3999 11.0348 17.1659 10.8359 18.1519 10.8359H19.2944V10.2964C19.2944 9.8859 19.1717 9.56006 18.9263 9.31885C18.6808 9.0734 18.319 8.95068 17.8408 8.95068C17.4219 8.95068 17.0706 9.05648 16.7871 9.26807C16.5036 9.47965 16.3618 9.73568 16.3618 10.0361H15.1812C15.1812 9.69336 15.3018 9.36328 15.543 9.0459C15.7884 8.72428 16.1185 8.47038 16.5332 8.28418C16.9521 8.09798 17.4113 8.00488 17.9106 8.00488C18.702 8.00488 19.3219 8.20378 19.7705 8.60156C20.2191 8.99512 20.4518 9.5389 20.4688 10.2329V13.394C20.4688 14.0246 20.5492 14.526 20.71 14.8984V15H19.4785ZM17.5298 14.105C17.8979 14.105 18.2471 14.0098 18.5771 13.8193C18.9072 13.6289 19.1463 13.3813 19.2944 13.0767V11.6675H18.374C16.9352 11.6675 16.2158 12.0885 16.2158 12.9307C16.2158 13.2988 16.3385 13.5866 16.584 13.7939C16.8294 14.0013 17.1447 14.105 17.5298 14.105ZM25.0645 14.1685C25.4834 14.1685 25.8494 14.0415 26.1626 13.7876C26.4757 13.5337 26.6493 13.2163 26.6831 12.8354H27.7939C27.7728 13.229 27.6374 13.6035 27.3877 13.959C27.138 14.3145 26.8037 14.598 26.3848 14.8096C25.9701 15.0212 25.5299 15.127 25.0645 15.127C24.1292 15.127 23.3844 14.8159 22.8301 14.1938C22.2799 13.5675 22.0049 12.7127 22.0049 11.6294V11.4326C22.0049 10.764 22.1276 10.1694 22.373 9.64893C22.6185 9.12842 22.9697 8.72428 23.4268 8.43652C23.888 8.14876 24.4318 8.00488 25.0581 8.00488C25.8283 8.00488 26.4673 8.23551 26.9751 8.69678C27.4871 9.15804 27.7601 9.75684 27.7939 10.4932H26.6831C26.6493 10.0488 26.48 9.6849 26.1753 9.40137C25.8748 9.11361 25.5024 8.96973 25.0581 8.96973C24.4614 8.96973 23.998 9.18555 23.668 9.61719C23.3421 10.0446 23.1792 10.6646 23.1792 11.4771V11.6992C23.1792 12.4906 23.3421 13.0999 23.668 13.5273C23.9938 13.9548 24.4593 14.1685 25.0645 14.1685Z" fill="black"/>
<path d="M7.07275 27V17.7578H10.0942C11.0972 17.7578 11.8504 17.9652 12.354 18.3799C12.8618 18.7946 13.1157 19.4082 13.1157 20.2207C13.1157 20.6523 12.993 21.0353 12.7476 21.3696C12.5021 21.6997 12.1678 21.9557 11.7446 22.1377C12.244 22.2773 12.6375 22.5439 12.9253 22.9375C13.2173 23.3268 13.3633 23.7923 13.3633 24.334C13.3633 25.1634 13.0946 25.8151 12.5571 26.2891C12.0197 26.763 11.2601 27 10.2783 27H7.07275ZM8.2915 22.6772V26.0034H10.3037C10.8708 26.0034 11.3172 25.8574 11.6431 25.5654C11.9731 25.2692 12.1382 24.863 12.1382 24.3467C12.1382 23.2337 11.533 22.6772 10.3228 22.6772H8.2915ZM8.2915 21.6997H10.1323C10.6655 21.6997 11.0908 21.5664 11.4082 21.2998C11.7298 21.0332 11.8906 20.6714 11.8906 20.2144C11.8906 19.7065 11.7425 19.3384 11.4463 19.1099C11.1501 18.8771 10.6994 18.7607 10.0942 18.7607H8.2915V21.6997ZM18.3081 21.1855C18.1304 21.1559 17.9378 21.1411 17.7305 21.1411C16.9603 21.1411 16.4377 21.4691 16.1626 22.125V27H14.9883V20.1318H16.1309L16.1499 20.9253C16.535 20.3117 17.0809 20.0049 17.7876 20.0049C18.0161 20.0049 18.1896 20.0345 18.3081 20.0938V21.1855ZM18.9556 23.5024C18.9556 22.8296 19.0868 22.2244 19.3491 21.687C19.6157 21.1496 19.9839 20.7349 20.4536 20.4429C20.9276 20.1509 21.4671 20.0049 22.0723 20.0049C23.0075 20.0049 23.7629 20.3286 24.3384 20.9761C24.9181 21.6235 25.208 22.4847 25.208 23.5596V23.6421C25.208 24.3107 25.0789 24.9116 24.8208 25.4448C24.5669 25.9738 24.2008 26.3864 23.7227 26.6826C23.2487 26.9788 22.7028 27.127 22.085 27.127C21.154 27.127 20.3986 26.8032 19.8188 26.1558C19.2433 25.5083 18.9556 24.6514 18.9556 23.585V23.5024ZM20.1362 23.6421C20.1362 24.4038 20.3118 25.0153 20.6631 25.4766C21.0186 25.9378 21.4925 26.1685 22.085 26.1685C22.6816 26.1685 23.1556 25.9357 23.5068 25.4702C23.8581 25.0005 24.0337 24.3446 24.0337 23.5024C24.0337 22.7492 23.8538 22.1398 23.4941 21.6743C23.1387 21.2046 22.6647 20.9697 22.0723 20.9697C21.4925 20.9697 21.0249 21.2004 20.6694 21.6616C20.314 22.1229 20.1362 22.783 20.1362 23.6421Z" fill="black"/>
</svg>
