<svg width="32" height="24" viewBox="0 0 32 24" fill="none" xmlns="http://www.w3.org/2000/svg">
<path fill-rule="evenodd" clip-rule="evenodd" d="M0.904113 10.5979C1.26049 9.83417 1.74677 9.30331 2.26189 8.78979C2.777 8.27628 3.44819 7.72586 4.16145 7.31378C5.21065 6.7076 6.08495 7.01832 6.80802 7.40602C7.53109 7.79374 8.14364 8.2578 8.65877 8.77134C9.17389 9.28487 9.73303 10.0458 9.93477 10.5949C10.3058 11.6047 10.404 12.2754 9.89877 13.2178C9.54527 13.8773 9.13686 14.3464 8.62174 14.8599C8.53983 14.9415 8.4569 15.0258 8.3726 15.1115C7.92678 15.5645 7.44267 16.0564 6.8682 16.4073C6.06404 16.8986 5.03229 16.755 4.0689 16.299C3.34672 15.9572 2.97387 15.6132 2.45875 15.0997C1.94362 14.5862 1.2846 13.8497 0.978145 13.2178C0.531538 12.2969 0.455989 11.5582 0.904113 10.5979ZM1.36918 10.661C1.68005 9.99482 2.0818 9.4633 2.53115 9.01534C2.9805 8.56739 3.55238 8.0849 4.21062 7.79622C4.85783 7.51235 6.00022 7.60527 6.51929 7.87669C7.03835 8.1481 7.68439 8.61972 8.13374 9.06768C8.58309 9.51563 9.15664 10.1458 9.33261 10.6248C9.65627 11.5057 9.83521 12.0568 9.5757 12.9296C9.39544 13.5358 8.85345 14.1923 8.4218 14.6403L8.33666 14.7288L8.33665 14.7289C7.88044 15.2041 7.05564 16.0633 6.48333 16.2941C5.61136 16.6456 4.74778 16.2603 3.99714 15.8077C3.36312 15.4254 2.99765 15.0707 2.58371 14.6228C2.16976 14.1748 1.70108 13.4977 1.43376 12.9464C1.04419 12.1431 0.978276 11.4987 1.36918 10.661Z" fill="#28ACD4"/>
<path fill-rule="evenodd" clip-rule="evenodd" d="M10.6113 10.5979C10.2549 9.83417 9.76861 9.30331 9.25349 8.78979C8.73838 8.27628 8.06719 7.72586 7.35393 7.31378C6.30473 6.7076 5.43043 7.01832 4.70736 7.40602C3.98429 7.79374 3.37174 8.2578 2.85661 8.77134C2.34149 9.28487 1.78235 10.0458 1.58061 10.5949C1.20954 11.6047 1.11138 12.2754 1.61661 13.2178C1.97011 13.8773 2.37852 14.3464 2.89364 14.8599C2.97555 14.9415 3.05848 15.0258 3.14278 15.1115C3.5886 15.5645 4.07271 16.0564 4.64718 16.4073C5.45134 16.8986 6.48309 16.755 7.44648 16.299C8.16866 15.9572 8.54151 15.6132 9.05663 15.0997C9.57176 14.5862 10.2308 13.8497 10.5372 13.2178C10.9838 12.2969 11.0594 11.5582 10.6113 10.5979ZM10.1461 10.661C9.83521 9.99482 9.43346 9.4633 8.98411 9.01534C8.53476 8.56739 7.96288 8.0849 7.30464 7.79622C6.65743 7.51235 5.51504 7.60527 4.99597 7.87669C4.47691 8.1481 3.83087 8.61972 3.38152 9.06768C2.93216 9.51563 2.35862 10.1458 2.18265 10.6248C1.85898 11.5057 1.68005 12.0568 1.93956 12.9296C2.11981 13.5358 2.66181 14.1923 3.09346 14.6403L3.1786 14.7288L3.17861 14.7289C3.63482 15.2041 4.45962 16.0633 5.03193 16.2941C5.90389 16.6456 6.76748 16.2603 7.51812 15.8077C8.15214 15.4254 8.51761 15.0707 8.93155 14.6228C9.34549 14.1748 9.81418 13.4977 10.0815 12.9464C10.4711 12.1431 10.537 11.4987 10.1461 10.661Z" fill="#28ACD4"/>
<mask id="mask0" mask-type="alpha" maskUnits="userSpaceOnUse" x="0" y="6" width="12" height="12">
<path fill-rule="evenodd" clip-rule="evenodd" d="M0 12.0158V11.9321C0.00680416 11.4922 0.121151 11.0425 0.359026 10.5414C0.784587 9.64477 1.42364 9.02156 2.03877 8.41858C2.65403 7.81568 3.39735 7.16943 4.24919 6.68566C5.50224 5.97395 6.54643 6.33879 7.41001 6.79398C8.27354 7.24915 9.00514 7.79402 9.62036 8.39691C10.2356 8.99982 10.9034 9.89332 11.1443 10.5379C11.5875 11.7235 11.7047 12.511 11.1013 13.6174C10.6791 14.3916 10.1914 14.9424 9.57609 15.5453C8.96091 16.1482 8.22451 16.7428 7.41001 17.2349C6.26995 17.9237 5.26339 17.8208 4.13864 17.2349C3.24285 16.7682 2.83092 16.4298 2.21564 15.8269C1.60048 15.224 0.813425 14.3593 0.447407 13.6174C0.166086 13.0472 0.00804822 12.5365 0 12.0158H0ZM0.642731 10.5512C0.175799 11.5347 0.254471 12.2912 0.719807 13.2344C1.03909 13.8816 1.72565 14.6358 2.26229 15.1618C2.79899 15.6877 3.15832 15.9829 3.93973 16.39C4.92092 16.9011 5.79892 16.9909 6.79342 16.39C7.50395 15.9608 8.14632 15.4421 8.68296 14.9161C9.21964 14.3902 9.64515 13.9097 10.0134 13.2344C10.5398 12.2692 10.4375 11.5823 10.051 10.5481C9.84075 9.98581 9.25825 9.20637 8.72155 8.68048C8.18491 8.15453 7.54675 7.67923 6.79342 7.28216C6.04017 6.8851 5.12925 6.56683 4.03617 7.18766C3.29313 7.6097 2.64469 8.17339 2.10799 8.69931C1.57141 9.22533 1.01395 9.76897 0.642731 10.5512Z" fill="white"/>
</mask>
<g mask="url(#mask0)">
<path d="M0 17.7156H32.0007V6.28516H0V17.7156Z" fill="#28ACD4"/>
</g>
<mask id="mask1" mask-type="alpha" maskUnits="userSpaceOnUse" x="0" y="7" width="12" height="10">
<path fill-rule="evenodd" clip-rule="evenodd" d="M0.914063 12.013V11.9427C0.920326 11.5731 1.0256 11.1954 1.24458 10.7745C1.63636 10.0213 2.22468 9.4978 2.79097 8.9913C3.35738 8.48486 4.04169 7.94201 4.82589 7.53564C5.97946 6.9378 6.94075 7.24427 7.73576 7.62663C8.53073 8.00897 9.20424 8.46667 9.77062 8.97309C10.337 9.47953 10.9518 10.2301 11.1736 10.7715C11.5816 11.7674 11.6895 12.4289 11.134 13.3583C10.7453 14.0086 10.2963 14.4713 9.72987 14.9777C9.16353 15.4842 8.4856 15.9837 7.73576 16.397C6.68622 16.9756 5.75957 16.8891 4.72412 16.397C3.89945 16.005 3.52023 15.7207 2.9538 15.2143C2.38747 14.7078 1.66291 13.9815 1.32595 13.3583C1.06696 12.8793 0.921472 12.4504 0.914062 12.013H0.914063ZM1.50535 10.7824C1.07549 11.6085 1.14791 12.244 1.57631 13.0363C1.87024 13.58 2.50229 14.2135 2.99633 14.6553C3.49042 15.0971 3.82122 15.3451 4.54059 15.687C5.44387 16.1163 6.25217 16.1918 7.16771 15.687C7.82183 15.3265 8.4132 14.8907 8.90723 14.4489C9.4013 14.0072 9.79303 13.6036 10.1321 13.0363C10.6166 12.2256 10.5225 11.6485 10.1666 10.7798C9.9731 10.3075 9.43684 9.65277 8.94276 9.21102C8.44872 8.76922 7.86123 8.36997 7.16771 8.03643C6.47426 7.7029 5.63566 7.43556 4.62937 7.95705C3.94532 8.31157 3.34836 8.78507 2.85428 9.22684C2.36029 9.66869 1.84709 10.1253 1.50535 10.7824Z" fill="white"/>
</mask>
<g mask="url(#mask1)">
<path d="M0.914062 16.8008H30.3741V7.19922H0.914062V16.8008Z" fill="#28ACD4"/>
</g>
<mask id="mask2" mask-type="alpha" maskUnits="userSpaceOnUse" x="0" y="6" width="11" height="10">
<path fill-rule="evenodd" clip-rule="evenodd" d="M0.914063 11.071V11.1413C0.919786 11.5108 1.01598 11.8886 1.21608 12.3095C1.57407 13.0627 2.11165 13.5862 2.6291 14.0927C3.14667 14.5991 3.77196 15.142 4.48853 15.5483C5.54261 16.1462 6.421 15.8397 7.14745 15.4574C7.87386 15.075 8.48929 14.6173 9.00682 14.1109C9.52434 13.6045 10.0861 12.8539 10.2888 12.3124C10.6616 11.3166 10.7602 10.6551 10.2526 9.72568C9.89746 9.07534 9.48715 8.61267 8.96959 8.10625C8.45208 7.59979 7.83262 7.10032 7.14745 6.68695C6.18842 6.10836 5.34169 6.19485 4.39554 6.68695C3.64199 7.07899 3.29547 7.36328 2.77789 7.86972C2.2604 8.37615 1.59833 9.10246 1.29043 9.72568C1.05378 10.2046 0.920833 10.6336 0.914062 11.071H0.914063ZM1.45372 12.3012C1.06093 11.475 1.12711 10.8396 1.51856 10.0473C1.78714 9.50363 2.36468 8.87006 2.81612 8.42826C3.26759 7.9865 3.56987 7.73852 4.2272 7.39653C5.05258 6.96725 5.79117 6.89181 6.62775 7.39653C7.22546 7.75713 7.76583 8.19283 8.21726 8.63463C8.66872 9.07637 9.02666 9.47998 9.33646 10.0473C9.77922 10.858 9.69321 11.4351 9.36804 12.3038C9.1912 12.7761 8.70119 13.4308 8.24972 13.8726C7.79829 14.3144 7.26146 14.7136 6.62775 15.0472C5.99411 15.3807 5.22783 15.648 4.30833 15.1265C3.68327 14.772 3.13779 14.2985 2.68632 13.8567C2.23493 13.4149 1.76599 12.9582 1.45372 12.3012Z" fill="white"/>
</mask>
<g mask="url(#mask2)">
<path d="M0.914062 6.2832H27.8334V15.8848H0.914062V6.2832Z" fill="#28ACD4"/>
</g>
<mask id="mask3" mask-type="alpha" maskUnits="userSpaceOnUse" x="-1" y="6" width="13" height="12">
<path fill-rule="evenodd" clip-rule="evenodd" d="M11.5156 12.0158V11.9321C11.5088 11.4922 11.3945 11.0425 11.1566 10.5414C10.731 9.64477 10.092 9.02156 9.47685 8.41858C8.86159 7.81568 8.11827 7.16943 7.26643 6.68566C6.01338 5.97395 4.96919 6.33879 4.10561 6.79398C3.24208 7.24915 2.51049 7.79402 1.89527 8.39691C1.28007 8.99982 0.612261 9.89332 0.371285 10.5379C-0.0718451 11.7235 -0.189084 12.511 0.41432 13.6174C0.836512 14.3916 1.32427 14.9424 1.93953 15.5453C2.55472 16.1482 3.29111 16.7428 4.10561 17.2349C5.24568 17.9237 6.25224 17.8208 7.37698 17.2349C8.27277 16.7682 8.6847 16.4298 9.29998 15.8269C9.91515 15.224 10.7022 14.3593 11.0682 13.6174C11.3495 13.0472 11.5076 12.5365 11.5156 12.0158H11.5156ZM10.8728 10.5512C11.3397 11.5347 11.261 12.2912 10.7957 13.2344C10.4764 13.8816 9.78985 14.6358 9.25321 15.1618C8.71651 15.6877 8.35718 15.9829 7.57577 16.39C6.59459 16.9011 5.71658 16.9909 4.72208 16.39C4.01155 15.9608 3.36918 15.4421 2.83254 14.9161C2.29586 14.3902 1.87035 13.9097 1.50208 13.2344C0.975737 12.2692 1.07798 11.5823 1.46454 10.5481C1.67476 9.98581 2.25726 9.20637 2.79395 8.68048C3.33059 8.15453 3.96875 7.67923 4.72208 7.28216C5.47533 6.8851 6.38626 6.56683 7.47933 7.18766C8.22237 7.6097 8.87081 8.17339 9.40751 8.69931C9.94409 9.22533 10.5016 9.76897 10.8728 10.5512Z" fill="white"/>
</mask>
<g mask="url(#mask3)">
<path d="M11.5156 17.7156H-20.4851V6.28516H11.5156V17.7156Z" fill="#28ACD4"/>
</g>
<mask id="mask4" mask-type="alpha" maskUnits="userSpaceOnUse" x="1" y="7" width="9" height="10">
<path fill-rule="evenodd" clip-rule="evenodd" d="M9.3613 13.0013C9.06234 13.6568 8.61349 14.1124 8.18139 14.5531C7.74926 14.9938 7.22717 15.4662 6.62884 15.8199C5.7487 16.3401 5.01528 16.0735 4.40873 15.7407C3.80217 15.408 3.28832 15.0097 2.8562 14.5689C2.42408 14.1282 1.95504 13.4751 1.78581 13.0039C1.47453 12.1372 1.39219 11.5616 1.81601 10.7528C2.11255 10.1868 2.45514 9.7842 2.88726 9.34348C3.31937 8.90274 3.83662 8.46809 4.40873 8.10837C5.20951 7.60486 5.89831 7.717 6.70648 8.10837C7.3123 8.40176 7.62505 8.6969 8.05716 9.13762C8.48929 9.57836 9.04212 10.2104 9.29919 10.7528C9.67383 11.5431 9.73721 12.1771 9.3613 13.0013ZM8.97848 12.9473C9.30639 12.2283 9.25111 11.6753 8.9243 10.9858C8.70004 10.5128 8.21781 9.96138 7.84086 9.57693C7.46391 9.19246 7.21152 8.97667 6.66261 8.67907C5.9735 8.30548 4.93817 8.49103 4.65824 8.67907C4.20422 8.9841 3.70798 9.37203 3.33104 9.75649C2.95409 10.1409 2.65525 10.4921 2.39655 10.9858C2.02685 11.6914 2.09868 12.1935 2.37021 12.9496C2.51784 13.3606 2.92699 13.9303 3.30394 14.3148C3.68089 14.6992 4.22282 15.104 4.65824 15.3369C5.09367 15.5699 6.05197 15.6496 6.5949 15.406C7.14707 15.1582 7.591 14.7236 7.96794 14.3392C8.34489 13.9547 8.71769 13.5191 8.97848 12.9473Z" fill="white"/>
</mask>
<g mask="url(#mask4)">
<path d="M-0.000244141 17.7156H32.0005V6.28516H-0.000244141V17.7156Z" fill="#28ACD4"/>
</g>
<mask id="mask5" mask-type="alpha" maskUnits="userSpaceOnUse" x="1" y="7" width="9" height="10">
<path fill-rule="evenodd" clip-rule="evenodd" d="M2.15457 13.0013C2.45353 13.6568 2.90237 14.1124 3.33448 14.5531C3.76661 14.9938 4.2887 15.4662 4.88703 15.8199C5.76717 16.3401 6.50059 16.0735 7.10714 15.7407C7.7137 15.408 8.22755 15.0097 8.65967 14.5689C9.09178 14.1282 9.56083 13.4751 9.73006 13.0039C10.0413 12.1372 10.1237 11.5616 9.69986 10.7528C9.40332 10.1868 9.06073 9.7842 8.62861 9.34348C8.1965 8.90274 7.67925 8.46809 7.10714 8.10837C6.30636 7.60486 5.61756 7.717 4.80939 8.10837C4.20357 8.40176 3.89081 8.6969 3.45871 9.13762C3.02658 9.57836 2.47375 10.2104 2.21668 10.7528C1.84204 11.5431 1.77866 12.1771 2.15457 13.0013ZM2.53704 12.9473C2.20912 12.2283 2.2644 11.6753 2.59121 10.9858C2.81547 10.5128 3.2977 9.96138 3.67465 9.57693C4.05161 9.19246 4.304 8.97667 4.8529 8.67907C5.54201 8.30548 6.57735 8.49103 6.85727 8.67907C7.3113 8.9841 7.80753 9.37203 8.18448 9.75649C8.56142 10.1409 8.86027 10.4921 9.11896 10.9858C9.48866 11.6914 9.41683 12.1935 9.1453 12.9496C8.99768 13.3606 8.58852 13.9303 8.21158 14.3148C7.83462 14.6992 7.29269 15.104 6.85727 15.3369C6.42184 15.5699 5.46355 15.6496 4.92062 15.406C4.36844 15.1582 3.92452 14.7236 3.54757 14.3392C3.17063 13.9547 2.79783 13.5191 2.53704 12.9473Z" fill="white"/>
</mask>
<g mask="url(#mask5)">
<path d="M11.5159 17.7156H-20.4849V6.28516H11.5159V17.7156Z" fill="#28ACD4"/>
</g>
<mask id="mask6" mask-type="alpha" maskUnits="userSpaceOnUse" x="1" y="7" width="10" height="11">
<path fill-rule="evenodd" clip-rule="evenodd" d="M10.186 13.4743C9.83944 14.2185 9.31896 14.7357 8.81798 15.2362C8.31689 15.7366 7.7115 16.2729 7.01773 16.6744C5.99719 17.2651 5.14676 16.9623 4.44343 16.5845C3.74014 16.2068 3.1443 15.7545 2.64324 15.2542C2.14219 14.7538 1.59828 14.0122 1.40205 13.4772C1.04115 12.4933 1.11456 11.8769 1.52291 10.9681C1.82468 10.2965 2.17823 9.82168 2.67929 9.3213C3.18035 8.82091 3.68994 8.39748 4.36715 8.0124C5.25751 7.50613 6.22989 7.48877 7.10776 7.91897C7.84952 8.28247 8.17282 8.58721 8.67392 9.0876C9.17494 9.58798 9.81595 10.3056 10.114 10.9214C10.5485 11.8187 10.6219 12.5385 10.186 13.4743ZM9.95754 13.4652C10.3378 12.6489 10.2738 12.021 9.89477 11.2382C9.63474 10.7011 9.07557 10.0751 8.63851 9.63856C8.2014 9.20207 7.90875 8.95706 7.27234 8.61916C6.47322 8.19501 5.75814 8.12049 4.94818 8.61916C4.36952 8.97545 3.79595 9.38402 3.35888 9.82051C2.9218 10.257 2.62562 10.6777 2.32569 11.2382C1.89703 12.0393 1.98029 12.6094 2.29511 13.4677C2.46632 13.9344 2.94073 14.5813 3.37784 15.0178C3.8149 15.4543 4.33464 15.8488 4.94818 16.1783C5.56166 16.5079 6.30355 16.772 7.19379 16.2568C7.79896 15.9065 8.32707 15.4386 8.76418 15.0021C9.20119 14.5656 9.65521 14.1144 9.95754 13.4652Z" fill="white"/>
</mask>
<g mask="url(#mask6)">
<path d="M0 17.7136H32.0007V6.2832H0V17.7136Z" fill="#28ACD4"/>
</g>
<mask id="mask7" mask-type="alpha" maskUnits="userSpaceOnUse" x="1" y="6" width="10" height="12">
<path fill-rule="evenodd" clip-rule="evenodd" d="M1.34925 13.2369C1.71911 14.0311 2.27452 14.5831 2.80915 15.1171C3.34388 15.6511 3.98991 16.2234 4.73026 16.6519C5.81931 17.2823 6.72683 16.9591 7.47739 16.556C8.22789 16.1528 8.86374 15.6703 9.39844 15.1363C9.93312 14.6023 10.5136 13.8109 10.723 13.24C11.1081 12.19 11.0298 11.5323 10.594 10.5625C10.272 9.84577 9.89467 9.33909 9.35997 8.80511C8.82527 8.27113 8.28146 7.81927 7.55879 7.40834C6.60865 6.86808 5.57099 6.84955 4.63418 7.30863C3.84262 7.69654 3.49762 8.02174 2.96287 8.55572C2.42822 9.0897 1.74417 9.8555 1.42606 10.5126C0.962424 11.4702 0.884068 12.2384 1.34925 13.2369ZM1.59384 13.227C1.18802 12.3559 1.2564 11.6859 1.66083 10.8505C1.93832 10.2773 2.53503 9.60929 3.00143 9.14347C3.46789 8.67767 3.78019 8.41621 4.45933 8.05563C5.31209 7.603 6.07518 7.52348 6.93952 8.05563C7.55703 8.43583 8.1691 8.87184 8.63553 9.33763C9.10195 9.80342 9.41801 10.2524 9.73808 10.8505C10.1955 11.7054 10.1067 12.3138 9.7707 13.2297C9.588 13.7277 9.08174 14.418 8.61529 14.8838C8.14888 15.3496 7.59425 15.7706 6.93952 16.1223C6.28485 16.474 5.49315 16.7558 4.54314 16.206C3.89735 15.8322 3.33378 15.3329 2.86733 14.8671C2.40097 14.4013 1.91648 13.9198 1.59384 13.227Z" fill="white"/>
</mask>
<g mask="url(#mask7)">
<path d="M12.2192 17.7623H-21.9299V5.56445H12.2192V17.7623Z" fill="#28ACD4"/>
</g>
<path fill-rule="evenodd" clip-rule="evenodd" d="M17.3288 13.7625C17.3288 13.8297 17.3274 13.8873 17.3232 13.9339C17.319 13.9805 17.312 14.0217 17.3036 14.0546C17.2966 14.0889 17.2854 14.1177 17.2714 14.1424C17.2574 14.1657 17.2364 14.1931 17.2056 14.2233C17.1763 14.2535 17.1175 14.2932 17.0321 14.3412C16.9454 14.3878 16.8404 14.4345 16.7159 14.4784C16.5913 14.5209 16.45 14.5579 16.2904 14.5867C16.1309 14.6155 15.9574 14.6306 15.7713 14.6306C15.4088 14.6306 15.0814 14.5757 14.7889 14.466C14.4964 14.3563 14.2473 14.1917 14.043 13.9737C13.8373 13.7556 13.6806 13.4841 13.5714 13.1563C13.4623 12.8299 13.4077 12.45 13.4077 12.0167C13.4077 11.5751 13.4679 11.1829 13.5882 10.84C13.7086 10.4972 13.8765 10.2092 14.092 9.97602C14.3075 9.74288 14.5664 9.56734 14.8687 9.44665C15.1695 9.32597 15.5026 9.26562 15.8664 9.26562C16.0134 9.26562 16.1547 9.27797 16.2918 9.30265C16.429 9.32597 16.5549 9.35751 16.6711 9.39728C16.7872 9.43568 16.8908 9.48094 16.9845 9.53168C17.0769 9.58379 17.1427 9.62768 17.1791 9.66333C17.2154 9.70036 17.2406 9.73053 17.2546 9.75385C17.2686 9.77853 17.2798 9.8087 17.2868 9.84573C17.2952 9.88413 17.3022 9.92802 17.3064 9.97876C17.3106 10.0295 17.312 10.0912 17.312 10.1666C17.312 10.2462 17.3092 10.3148 17.3036 10.371C17.298 10.4272 17.2882 10.4725 17.2756 10.5068C17.2616 10.541 17.2448 10.5671 17.2266 10.5822C17.2071 10.5986 17.1847 10.6069 17.1609 10.6069C17.1203 10.6069 17.0685 10.5836 17.0055 10.5369C16.9426 10.4903 16.8614 10.4382 16.762 10.3806C16.6627 10.323 16.5437 10.2709 16.4052 10.2242C16.2681 10.1776 16.1043 10.1543 15.9126 10.1543C15.7027 10.1543 15.5152 10.1968 15.3501 10.2805C15.1849 10.3655 15.045 10.4848 14.9288 10.6412C14.8127 10.7989 14.7245 10.9881 14.6644 11.2103C14.6042 11.4311 14.5748 11.6821 14.5748 11.9604C14.5748 12.2649 14.607 12.5296 14.6714 12.7531C14.7357 12.9753 14.8267 13.1604 14.9456 13.3044C15.0632 13.4484 15.2073 13.5568 15.3753 13.6267C15.5432 13.698 15.7321 13.7337 15.942 13.7337C16.1323 13.7337 16.2974 13.7117 16.4374 13.6679C16.5759 13.624 16.6949 13.5746 16.7942 13.5225C16.895 13.469 16.9761 13.421 17.0405 13.3785C17.1049 13.336 17.1539 13.314 17.1903 13.314C17.2168 13.314 17.2392 13.3195 17.2546 13.3305C17.2714 13.3415 17.2854 13.362 17.2966 13.3949C17.3064 13.4265 17.3148 13.4717 17.3204 13.5293C17.326 13.5883 17.3288 13.6651 17.3288 13.7625ZM20.9669 14.1068C20.9669 14.1863 20.9641 14.2549 20.9571 14.3097C20.9501 14.3646 20.9389 14.4098 20.9263 14.4455C20.9123 14.4825 20.8955 14.5086 20.8745 14.5237C20.8535 14.5401 20.8297 14.5484 20.8031 14.5484H18.3724C18.2828 14.5484 18.2073 14.5223 18.1457 14.4702C18.0841 14.4181 18.0533 14.333 18.0533 14.2151V9.49196C18.0533 9.4659 18.0617 9.44122 18.0799 9.41927C18.0981 9.3987 18.1275 9.38087 18.1681 9.36716C18.2087 9.35345 18.2646 9.34385 18.3346 9.33562C18.4046 9.32739 18.4913 9.32328 18.5949 9.32328C18.7013 9.32328 18.7894 9.32739 18.858 9.33562C18.9252 9.34385 18.9811 9.35345 19.0217 9.36716C19.0623 9.38087 19.0917 9.3987 19.1099 9.41927C19.1281 9.44122 19.1365 9.4659 19.1365 9.49196V13.6761H20.8031C20.8297 13.6761 20.8549 13.683 20.8745 13.6981C20.8955 13.7132 20.9123 13.7365 20.9263 13.7708C20.9403 13.8037 20.9501 13.8476 20.9571 13.9038C20.9641 13.9586 20.9669 14.0258 20.9669 14.1068ZM22.6074 14.477C22.6256 14.4551 22.6339 14.4304 22.6339 14.4044V9.49196C22.6339 9.4659 22.6256 9.44122 22.6074 9.41927C22.5892 9.3987 22.5598 9.38087 22.5192 9.36716C22.4786 9.35345 22.4226 9.34385 22.3555 9.33562C22.2869 9.32739 22.1987 9.32328 22.0924 9.32328C21.9888 9.32328 21.9021 9.32739 21.8335 9.33562C21.7649 9.34385 21.7104 9.35345 21.6684 9.36716C21.625 9.38087 21.5956 9.3987 21.5774 9.41927C21.5592 9.44122 21.5508 9.4659 21.5508 9.49196V14.4044C21.5508 14.4304 21.5592 14.4551 21.5774 14.477C21.5956 14.4976 21.625 14.5154 21.6656 14.5292C21.7062 14.5415 21.7621 14.5525 21.8321 14.5607C21.9021 14.5689 21.9888 14.573 22.0924 14.573C22.1987 14.573 22.2869 14.5689 22.3555 14.5607C22.4226 14.5525 22.4786 14.5415 22.5192 14.5292C22.5598 14.5154 22.5892 14.4976 22.6074 14.477ZM27.4057 13.7625C27.4057 13.8297 27.4043 13.8873 27.4001 13.934C27.3959 13.9806 27.3889 14.0217 27.3805 14.0546C27.3735 14.0889 27.3623 14.1177 27.3484 14.1424C27.3344 14.1657 27.3134 14.1932 27.2826 14.2233C27.2532 14.2535 27.1944 14.2933 27.1091 14.3413C27.0223 14.3879 26.9173 14.4345 26.7928 14.4784C26.6682 14.5209 26.5269 14.5579 26.3674 14.5867C26.2078 14.6155 26.0343 14.6306 25.8482 14.6306C25.4858 14.6306 25.1583 14.5758 24.8658 14.4661C24.5734 14.3564 24.3243 14.1918 24.12 13.9737C23.9143 13.7557 23.7575 13.4841 23.6484 13.1564C23.5392 12.83 23.4846 12.4501 23.4846 12.0167C23.4846 11.5751 23.5448 11.1829 23.6652 10.8401C23.7855 10.4972 23.9534 10.2092 24.1689 9.97606C24.3845 9.74292 24.6433 9.56738 24.9456 9.4467C25.2465 9.32601 25.5795 9.26567 25.9434 9.26567C26.0903 9.26567 26.2316 9.27801 26.3688 9.3027C26.5059 9.32601 26.6319 9.35755 26.748 9.39733C26.8642 9.43572 26.9677 9.48098 27.0615 9.53172C27.1538 9.58384 27.2196 9.62772 27.256 9.66338C27.2924 9.70041 27.3176 9.73058 27.3316 9.75389C27.3456 9.77858 27.3567 9.80875 27.3637 9.84578C27.3721 9.88418 27.3791 9.92806 27.3833 9.9788C27.3875 10.0295 27.3889 10.0913 27.3889 10.1667C27.3889 10.2462 27.3861 10.3148 27.3805 10.371C27.3749 10.4273 27.3651 10.4725 27.3525 10.5068C27.3386 10.5411 27.3218 10.5671 27.3036 10.5822C27.284 10.5987 27.2616 10.6069 27.2378 10.6069C27.1972 10.6069 27.1454 10.5836 27.0825 10.537C27.0195 10.4903 26.9383 10.4382 26.839 10.3806C26.7396 10.323 26.6207 10.2709 26.4821 10.2243C26.345 10.1777 26.1813 10.1543 25.9895 10.1543C25.7796 10.1543 25.5921 10.1969 25.427 10.2805C25.2619 10.3655 25.1219 10.4849 25.0058 10.6412C24.8896 10.7989 24.8015 10.9882 24.7413 11.2103C24.6811 11.4311 24.6517 11.6821 24.6517 11.9605C24.6517 12.2649 24.6839 12.5296 24.7483 12.7532C24.8127 12.9753 24.9036 13.1605 25.0226 13.3045C25.1401 13.4485 25.2843 13.5568 25.4522 13.6268C25.6201 13.6981 25.809 13.7337 26.0189 13.7337C26.2092 13.7337 26.3744 13.7118 26.5143 13.6679C26.6529 13.624 26.7718 13.5746 26.8712 13.5225C26.9719 13.469 27.0531 13.421 27.1174 13.3785C27.1818 13.336 27.2308 13.3141 27.2672 13.3141C27.2938 13.3141 27.3162 13.3196 27.3316 13.3305C27.3484 13.3415 27.3623 13.3621 27.3735 13.395C27.3833 13.4265 27.3917 13.4718 27.3973 13.5294C27.4029 13.5884 27.4057 13.6652 27.4057 13.7625ZM31.9777 14.4702C31.993 14.4482 32 14.4222 32 14.392C32 14.3701 31.9944 14.3413 31.9819 14.3056C31.9693 14.27 31.9329 14.1959 31.8727 14.0862L30.2872 11.7356L31.7398 9.86635C31.8083 9.76076 31.8545 9.68533 31.8797 9.63733C31.9035 9.58796 31.9161 9.54133 31.9161 9.49607C31.9161 9.46864 31.9077 9.44533 31.8909 9.42339C31.8755 9.40282 31.8461 9.38362 31.8041 9.3699C31.7608 9.35482 31.7048 9.34385 31.6334 9.33562C31.562 9.32739 31.4725 9.32328 31.3633 9.32328C31.257 9.32328 31.1702 9.32602 31.1016 9.3315C31.0331 9.33699 30.9771 9.34659 30.9337 9.35893C30.8903 9.37265 30.8539 9.39047 30.8274 9.41379C30.7994 9.4371 30.777 9.4659 30.7574 9.50019L29.2041 11.7109V9.49607C29.2041 9.4659 29.1957 9.44122 29.1789 9.41927C29.1635 9.3987 29.1341 9.38087 29.0935 9.36716C29.0529 9.35345 28.9984 9.34385 28.9298 9.33562C28.8626 9.32739 28.7745 9.32328 28.6695 9.32328C28.566 9.32328 28.4792 9.32739 28.4092 9.33562C28.3393 9.34385 28.2847 9.35345 28.2441 9.36716C28.2035 9.38087 28.1741 9.3987 28.1559 9.41927C28.1377 9.44122 28.1293 9.4659 28.1293 9.49607V14.3961C28.1293 14.4249 28.1377 14.451 28.1559 14.4729C28.1741 14.4935 28.2035 14.5113 28.2441 14.5264C28.2847 14.5415 28.3393 14.5525 28.4092 14.5607C28.4792 14.5689 28.566 14.573 28.6695 14.573C28.7745 14.573 28.8626 14.5689 28.9298 14.5607C28.9984 14.5525 29.0529 14.5415 29.0935 14.5264C29.1341 14.5127 29.1635 14.4935 29.1789 14.4729C29.1957 14.451 29.2041 14.4249 29.2041 14.3961V11.9276L30.8078 14.3961C30.8274 14.4332 30.8539 14.4661 30.8875 14.4921C30.9211 14.5196 30.9771 14.5401 31.0555 14.5525C31.1338 14.5662 31.2612 14.573 31.4389 14.573C31.5508 14.573 31.6432 14.5689 31.7174 14.5607C31.7915 14.5525 31.8489 14.5415 31.8909 14.5264C31.9343 14.5113 31.9623 14.4935 31.9777 14.4702Z" fill="#1A1919"/>
</svg>
