<svg width="32" height="24" viewBox="0 0 32 24" fill="none" xmlns="http://www.w3.org/2000/svg">
<path d="M8.08716 6.5173V13.5122C8.08716 14.0255 8.50335 14.4417 9.01669 14.4417H16.3116C16.8249 14.4417 17.2411 14.0255 17.2411 13.5122V4.87289C17.2411 4.35955 16.8249 3.94336 16.3116 3.94336H10.6611L8.08716 6.5173Z" fill="#F6F9F9"/>
<path d="M8.08716 6.5173H9.7316C10.2449 6.5173 10.6611 6.10111 10.6611 5.58777V3.94336" fill="#DDDAEC"/>
<path d="M15.2376 7.59757H10.0903C9.95548 7.59757 9.84619 7.48828 9.84619 7.35347C9.84619 7.21866 9.95548 7.10938 10.0903 7.10938H15.2376C15.3724 7.10938 15.4817 7.21866 15.4817 7.35347C15.4817 7.48828 15.3724 7.59757 15.2376 7.59757Z" fill="#407093"/>
<path d="M15.2376 8.99015H10.0903C9.95548 8.99015 9.84619 8.88086 9.84619 8.74605C9.84619 8.61124 9.95548 8.50195 10.0903 8.50195H15.2376C15.3724 8.50195 15.4817 8.61124 15.4817 8.74605C15.4817 8.88086 15.3724 8.99015 15.2376 8.99015Z" fill="#407093"/>
<path d="M15.2375 10.3827H10.0903C9.95548 10.3827 9.84619 10.2734 9.84619 10.1386C9.84619 10.0038 9.95548 9.89453 10.0903 9.89453H15.2375C15.3724 9.89453 15.4816 10.0038 15.4816 10.1386C15.4816 10.2734 15.3724 10.3827 15.2375 10.3827Z" fill="#407093"/>
<path d="M15.2375 11.7753H10.0903C9.95548 11.7753 9.84619 11.666 9.84619 11.5312C9.84619 11.3964 9.95548 11.2871 10.0903 11.2871H15.2375C15.3724 11.2871 15.4816 11.3964 15.4816 11.5312C15.4816 11.666 15.3724 11.7753 15.2375 11.7753Z" fill="#407093"/>
<path d="M14.8103 17.5142V10.5194C14.8103 10.006 15.2265 9.58984 15.7398 9.58984H23.0347C23.5481 9.58984 23.9643 10.006 23.9643 10.5194V19.1587C23.9643 19.672 23.5481 20.0882 23.0347 20.0882H17.3842L14.8103 17.5142Z" fill="#F5DE7D"/>
<path d="M14.8105 17.5137H16.455C16.9683 17.5137 17.3845 17.9299 17.3845 18.4432V20.0876" fill="#F1CE64"/>
<path d="M11.2976 19.9925L13.5754 18.8683C13.8042 18.7554 13.9199 18.5305 13.9142 18.307C13.91 18.1206 13.8216 17.9346 13.644 17.8162L11.5317 16.4055C11.1423 16.1452 10.6168 16.4044 10.5864 16.8719L10.5797 16.9742C10.213 16.6449 9.91978 16.2365 9.72282 15.7704C9.5301 15.3141 9.00386 15.1009 8.54802 15.2936C8.49356 15.3166 8.44228 15.3446 8.39489 15.3767C8.04656 15.6112 7.9012 16.0667 8.07095 16.4684C8.54376 17.5873 9.37838 18.4895 10.4442 19.0454L10.4205 19.4072C10.3902 19.8747 10.8775 20.2001 11.2976 19.9925Z" fill="#9DC6FB"/>
<path d="M13.7438 18.746C13.8605 18.6268 13.9181 18.4666 13.9142 18.3071C13.91 18.1207 13.8216 17.9347 13.644 17.8159L11.5317 16.4055C11.1423 16.1449 10.6168 16.4045 10.5864 16.8716L10.5797 16.9742C10.213 16.645 9.91978 16.2365 9.72282 15.7704C9.5301 15.3138 9.00386 15.101 8.54802 15.2937C8.49356 15.3167 8.44228 15.3446 8.39489 15.3764C8.04656 15.6113 7.9012 16.0664 8.07095 16.4685C8.08192 16.4947 8.09323 16.5205 8.10454 16.5463C8.17208 16.419 8.27041 16.3072 8.39489 16.2234C8.44228 16.1912 8.49356 16.1633 8.54802 16.1403C9.00386 15.9476 9.5301 16.1608 9.72282 16.617C9.91981 17.0831 10.213 17.4916 10.5797 17.8208L10.5864 17.7186C10.6168 17.2511 11.1423 16.9919 11.5317 17.2522L13.644 18.6628C13.6812 18.688 13.7148 18.7159 13.7438 18.746Z" fill="#80B4FB"/>
<path d="M21.9608 12.5976H16.8134C16.6786 12.5976 16.5693 12.4883 16.5693 12.3535C16.5693 12.2187 16.6786 12.1094 16.8134 12.1094H21.9608C22.0956 12.1094 22.2048 12.2187 22.2048 12.3535C22.2048 12.4883 22.0956 12.5976 21.9608 12.5976Z" fill="#365E7D"/>
<path d="M21.9608 13.9901H16.8134C16.6786 13.9901 16.5693 13.8809 16.5693 13.7461C16.5693 13.6112 16.6786 13.502 16.8134 13.502H21.9608C22.0956 13.502 22.2048 13.6112 22.2048 13.7461C22.2048 13.8809 22.0956 13.9901 21.9608 13.9901Z" fill="#365E7D"/>
<path d="M21.9608 15.3827H16.8134C16.6786 15.3827 16.5693 15.2734 16.5693 15.1386C16.5693 15.0038 16.6786 14.8945 16.8134 14.8945H21.9608C22.0956 14.8945 22.2048 15.0038 22.2048 15.1386C22.2048 15.2734 22.0956 15.3827 21.9608 15.3827Z" fill="#365E7D"/>
<path d="M21.9608 16.7753H16.8134C16.6786 16.7753 16.5693 16.666 16.5693 16.5312C16.5693 16.3964 16.6786 16.2871 16.8134 16.2871H21.9608C22.0956 16.2871 22.2048 16.3964 22.2048 16.5312C22.2048 16.666 22.0956 16.7753 21.9608 16.7753Z" fill="#365E7D"/>
<path d="M20.6959 3.97612L18.4136 5.10258C18.1844 5.21562 18.0685 5.44095 18.0742 5.66489C18.0784 5.85161 18.167 6.03802 18.3449 6.15672L20.4613 7.57015C20.8515 7.83096 21.378 7.57122 21.4085 7.10278L21.4152 7.00038C21.7826 7.33025 22.0764 7.73952 22.2738 8.20655C22.4669 8.66365 22.9941 8.87732 23.4509 8.68419C23.5054 8.66116 23.5568 8.63317 23.6043 8.60094C23.9533 8.366 24.0989 7.90963 23.9288 7.50709C23.4551 6.38597 22.6189 5.48206 21.5509 4.92505L21.5746 4.56257C21.6051 4.09413 21.1169 3.76814 20.6959 3.97612Z" fill="#DD636E"/>
<path d="M18.2452 5.22461C18.1283 5.34404 18.0705 5.50453 18.0744 5.66434C18.0787 5.85106 18.1672 6.03746 18.3451 6.15651L20.4616 7.56959C20.8517 7.83075 21.3782 7.57067 21.4087 7.10257L21.4154 6.99982C21.7829 7.3297 22.0766 7.73897 22.274 8.20596C22.4671 8.66341 22.9944 8.87674 23.4511 8.6836C23.5057 8.66057 23.557 8.63258 23.6045 8.6007C23.9535 8.36542 24.0992 7.90939 23.9291 7.5065C23.9181 7.48027 23.9067 7.4544 23.8954 7.42852C23.8278 7.5561 23.7293 7.66807 23.6045 7.75205C23.557 7.78427 23.5057 7.8123 23.4511 7.8353C22.9944 8.02843 22.4671 7.81476 22.274 7.35766C22.0766 6.89063 21.7829 6.48139 21.4154 6.15149L21.4087 6.25388C21.3782 6.72233 20.8517 6.98203 20.4616 6.72126L18.3451 5.30789C18.3079 5.28271 18.2743 5.25472 18.2452 5.22461Z" fill="#DA4A54"/>
</svg>
