<svg width="32" height="24" viewBox="0 0 32 24" fill="none" xmlns="http://www.w3.org/2000/svg">
<path d="M18.3622 15.0905C18.3622 14.574 18.1797 14.1389 17.8148 13.7853C17.4555 13.4316 16.8464 13.1116 15.9874 12.8253C14.7917 12.4604 13.9187 11.986 13.3685 11.4021C12.8239 10.8126 12.5517 10.066 12.5517 9.16211C12.5517 8.2414 12.8183 7.48632 13.3517 6.89684C13.8906 6.30737 14.6288 5.95649 15.5664 5.84421V4H16.8211V5.85263C17.7643 5.98175 18.4969 6.37754 19.019 7.04C19.5467 7.70246 19.8106 8.60912 19.8106 9.76H18.2611C18.2611 8.96842 18.0731 8.33965 17.6969 7.87368C17.3208 7.40772 16.8127 7.17474 16.1727 7.17474C15.5046 7.17474 14.9938 7.34877 14.6401 7.69684C14.2864 8.0393 14.1096 8.5193 14.1096 9.13684C14.1096 9.70947 14.2948 10.167 14.6653 10.5095C15.0415 10.8463 15.6562 11.1551 16.5096 11.4358C17.3685 11.7109 18.0366 12.0168 18.5138 12.3537C18.9966 12.6849 19.3503 13.0723 19.5748 13.5158C19.805 13.9593 19.9201 14.4786 19.9201 15.0737C19.9201 16.0225 19.6338 16.786 19.0611 17.3642C18.4941 17.9425 17.6969 18.2849 16.6696 18.3916V20H15.4232V18.3916C14.379 18.2961 13.5594 17.9256 12.9643 17.28C12.3748 16.6288 12.0801 15.7474 12.0801 14.6358H13.638C13.638 15.4161 13.8429 16.0168 14.2527 16.4379C14.6625 16.8589 15.2436 17.0695 15.9959 17.0695C16.7313 17.0695 17.3096 16.8926 17.7306 16.5389C18.1517 16.1853 18.3622 15.7025 18.3622 15.0905Z" fill="#1890FF"/>
</svg>
