<svg width="24" height="24" viewBox="0 0 24 24" fill="none" xmlns="http://www.w3.org/2000/svg">
<path d="M13.848 0L0 2.64V21.336L13.848 24V0ZM14.76 2.76V5.496H17.568V7.392H14.76V9.216H17.544V11.064H14.76V12.912H17.544V14.76H14.76V16.608H17.544V18.456H14.76V21.24H23.232C23.64 21.24 24 20.856 24 20.424V3.576C24 3.12 23.64 2.76 23.232 2.76H14.76ZM18.456 5.544H22.152V7.392H18.456V5.544ZM2.856 7.32H5.4L6.744 10.152C6.864 10.368 6.96 10.632 7.032 10.92C7.104 10.752 7.224 10.488 7.368 10.128L8.832 7.32H11.16L8.376 11.976L11.256 16.704H8.76L7.152 13.632C7.104 13.536 7.008 13.32 6.96 13.008H6.936C6.888 13.152 6.84 13.368 6.72 13.68L5.112 16.704H2.592L5.568 12.024L2.856 7.32ZM18.456 9.216H22.152V11.064H18.456V9.216ZM18.456 12.912H22.152V14.76H18.456V12.912ZM18.456 16.608H22.152V18.456H18.456V16.608Z" fill="white"/>
</svg>
