<svg width="32" height="24" viewBox="0 0 32 24" fill="none" xmlns="http://www.w3.org/2000/svg">
<path d="M22.6407 15.5583C22.8641 15.8774 22.8867 16.3801 22.6493 16.7698C22.4376 17.1179 21.1692 18.4534 20.7565 18.8825C20.3988 19.2554 19.9158 19.6286 19.4403 19.6286H9.48869C8.14373 19.6286 8.0625 19.174 8.0625 18.146V13.9764C8.0625 12.9265 8.37326 12.623 9.29172 12.623H19.4404C19.9159 12.623 20.3388 12.865 20.8245 13.3575C21.2368 13.7756 22.4691 15.3128 22.6407 15.5583Z" fill="#33CCCC"/>
<path d="M10.3197 14.2355C10.3197 14.2061 10.3197 14.2369 10.3197 14.208C10.3197 14.0738 10.3084 13.9414 10.0881 13.9414H9.25632C9.06306 13.9414 9.05078 14.0481 9.05078 14.2135V15.3154C9.45571 14.7384 9.90455 14.4703 10.3197 14.2355Z" fill="white"/>
<path d="M15.8982 18.2155V18.1564H15.8988V15.5041C15.8988 14.3918 15.4082 13.8359 14.4272 13.8359C14.1462 13.8359 13.889 13.906 13.6558 14.0463C13.4223 14.1866 13.1982 14.3828 12.9828 14.6344C12.877 14.3609 12.7176 14.1596 12.5042 14.0301C12.2909 13.9006 12.0145 13.8362 11.6754 13.8362C11.2826 13.8362 10.8259 13.9734 10.5023 14.2388C10.4299 14.311 9.04973 15.3943 9.04973 16.5069C9.04973 17.1168 9.04973 17.7642 9.04973 17.7642C9.04973 17.7642 9.04973 18.1946 9.04973 18.205C9.04973 18.259 9.02352 18.464 9.25383 18.464H10.1195C10.3887 18.464 10.3624 18.2882 10.3624 18.216C10.3624 18.1983 10.3624 17.7538 10.3624 17.7538V15.4691C10.5084 15.2759 10.8071 14.7985 11.2921 14.7985C11.4783 14.7985 11.6124 14.8614 11.6943 14.9869C11.7765 15.1124 11.8178 15.3234 11.8178 15.6188V17.7638H11.8168C11.8168 17.7638 11.8168 18.1942 11.8168 18.2046C11.8168 18.2585 11.7906 18.4635 12.0209 18.4635H12.8758C13.1451 18.4635 13.1188 18.2878 13.1188 18.2155V18.1564H13.1198V15.4691C13.2763 15.2759 13.5884 14.7985 14.0494 14.7985C14.2392 14.7985 14.376 14.8614 14.4599 14.9869C14.5436 15.1124 14.5854 15.3234 14.5854 15.6188V17.7638H14.5846C14.5846 17.7638 14.5846 18.1942 14.5846 18.2046C14.5846 18.2585 14.5585 18.4635 14.7888 18.4635H15.6547C15.9245 18.4635 15.8982 18.2878 15.8982 18.2155Z" fill="white"/>
<path fill-rule="evenodd" clip-rule="evenodd" d="M18.7077 18.4251C19.6213 18.4251 20.3588 17.9637 20.6668 17.1378C20.6875 17.0827 20.635 16.9677 20.5172 16.9679H19.7939C19.7939 16.9679 19.6166 16.96 19.53 17.1015C19.3307 17.4265 19.1022 17.5923 18.7164 17.5923C18.0838 17.5923 17.7255 17.1925 17.7088 16.4515H20.5172C20.7384 16.4515 20.7902 16.2955 20.7835 16.1189C20.7308 14.7368 19.9018 13.8789 18.6663 13.8789C17.4173 13.8789 16.5098 14.8448 16.5098 16.1772C16.5098 17.5259 17.3839 18.4251 18.7077 18.4251ZM17.7072 15.7035C17.7738 15.1037 18.1402 14.7374 18.665 14.7374C19.2559 14.7374 19.5391 15.1788 19.5892 15.7035H17.7072Z" fill="white"/>
<path fill-rule="evenodd" clip-rule="evenodd" d="M13.1686 4.90591C13.0485 4.71967 12.907 4.56899 12.7436 4.45293C12.5802 4.33719 12.3961 4.24518 12.1913 4.17656C11.9868 4.10854 11.7622 4.06198 11.518 4.03716C11.274 4.01227 11.0113 4 10.7302 4H8.42456C8.21726 4 8 4.13575 8 4.39183V8.1192C8.29201 8.74039 8.86101 9.39996 9.5078 9.71509V8.97584C9.5078 8.58578 9.80247 8.49858 9.92435 8.49858H10.606C11.545 8.49858 12.2615 8.30195 12.7559 7.90885C13.2503 7.5162 13.4974 6.93272 13.4974 6.15918C13.4974 5.92351 13.4715 5.70228 13.42 5.49542C13.368 5.28867 13.2843 5.09203 13.1686 4.90591ZM11.8256 6.82001C11.7409 6.96267 11.6271 7.06917 11.4844 7.13956C11.3416 7.21007 11.1772 7.25325 10.9912 7.2699C10.805 7.28643 10.6126 7.29478 10.4141 7.29478H9.76621C9.60773 7.29478 9.50815 7.16616 9.50815 6.97644V5.45255C9.50815 5.28168 9.6199 5.20997 9.75393 5.20997H10.4141C10.6291 5.20997 10.8307 5.21627 11.019 5.22854C11.2074 5.24082 11.3706 5.28036 11.5093 5.3466C11.648 5.41284 11.7564 5.51409 11.8353 5.65062C11.9137 5.78698 11.953 5.97952 11.953 6.22752C11.9527 6.47972 11.9104 6.67724 11.8256 6.82001ZM8.00097 8.99954C8.32053 9.33469 8.79745 9.67265 9.50878 9.95621H9.50876L9.50861 10.7989C9.50861 10.7989 9.54267 11.0924 9.26674 11.0924H8.26097C7.97448 11.0924 8.00097 10.7989 8.00097 10.7989V8.99954ZM23.7635 5.96144H22.8608C22.6774 5.96144 22.5565 6.03824 22.4837 6.23941C22.4105 6.44057 21.4541 9.09742 21.4541 9.09742C21.4541 9.09742 20.5389 6.49543 20.4669 6.29398C20.3952 6.09254 20.2765 5.96144 20.0634 5.96144H19.2341C18.9415 5.96144 18.9415 6.19053 18.9778 6.28154C19.0072 6.35498 20.1431 9.45911 20.5757 10.6415C20.5963 10.6979 20.6144 10.7463 20.6301 10.7885L20.6301 10.7885L20.6301 10.7885C20.6924 10.9554 20.7186 11.0255 20.7211 11.1081C20.7245 11.2118 20.6189 11.4286 20.546 11.5533C20.51 11.6147 20.4714 11.6667 20.4311 11.7142C21.2793 11.4611 22.2568 10.5423 22.7624 9.54698C23.2621 8.15999 23.9214 6.32772 23.9499 6.23393C23.9958 6.08248 23.9953 5.96144 23.7635 5.96144ZM19.5431 11.9615C19.6212 11.9717 19.6992 11.9765 19.7775 11.9783C20.914 12.0881 22.0875 10.9785 22.3362 10.7281L22.2048 11.093C22.0891 11.399 21.9679 11.6794 21.8419 11.9336C21.7157 12.1879 21.572 12.4071 21.4108 12.5911C21.2494 12.7751 21.0632 12.9188 20.8522 13.0222C20.6413 13.1256 20.393 13.1774 20.1078 13.1774C19.865 13.1774 19.6515 13.1568 19.4672 13.1157L19.4593 13.114C19.388 13.0984 19.2699 13.0727 19.2699 12.8171V12.1221C19.2699 11.9666 19.448 11.9489 19.5431 11.9615ZM18.4211 6.78591C18.3674 6.66182 18.3011 6.5556 18.2229 6.46635C18.144 6.37755 18.0511 6.29809 17.9434 6.22742C17.8277 6.15283 17.7099 6.09195 17.5899 6.04423C17.4699 5.99711 17.3406 5.95763 17.2021 5.92645C17.0636 5.89526 16.9115 5.87364 16.7462 5.86136C16.5806 5.84909 16.3945 5.84278 16.1876 5.84278C14.8201 5.84278 14.0417 6.27365 13.8516 7.13554C13.7899 7.40301 14.0553 7.41877 14.0553 7.41877H14.8965C15.0794 7.41877 15.1035 7.36989 15.1679 7.23915L15.1679 7.23913C15.1809 7.21286 15.1955 7.18329 15.2133 7.15014C15.2528 7.04098 15.3191 6.95074 15.4121 6.87891C15.5736 6.75483 15.8156 6.69296 16.1381 6.69296C16.4484 6.69296 16.6739 6.75295 16.8145 6.87278C16.9552 6.99277 17.0379 7.17475 17.0626 7.41877C17.0626 7.70199 16.9741 7.89088 16.6307 7.89088C15.7935 7.86058 14.8941 7.95513 14.3874 8.24467C13.8804 8.53419 13.5941 9.10053 13.5941 9.70856C13.5941 9.95656 13.6386 10.1738 13.7275 10.3601C13.8163 10.546 13.9404 10.7021 14.0999 10.8284C14.2589 10.9546 14.4483 11.0487 14.6676 11.1107C14.8867 11.1727 15.1267 11.2039 15.3872 11.2039C15.7512 11.2039 16.0731 11.1581 16.3523 11.0672C16.6314 10.9764 17.0634 10.6766 17.1184 10.6329V10.7926C17.1184 10.9509 17.1667 11.0921 17.3562 11.0921L18.3344 11.0922C18.5325 11.0922 18.5764 10.9511 18.5764 10.7774V7.77278C18.5764 7.56194 18.5641 7.37559 18.5393 7.21446C18.5142 7.05277 18.4748 6.91027 18.4211 6.78591V6.78591ZM15.9339 10.2559C16.8354 10.2559 17.088 9.73273 17.088 9.73273C17.088 9.73273 17.088 9.2015 17.0879 9.14095C17.0879 8.97639 16.9885 8.73818 16.6101 8.72928C16.2318 8.72038 15.7269 8.79248 15.4747 8.91844C15.2223 9.04485 15.0961 9.26083 15.0961 9.56717C15.0961 9.80301 15.1738 9.97669 15.3289 10.0884C15.4841 10.2002 15.6859 10.2559 15.9339 10.2559Z" fill="#333333"/>
</svg>
