<svg width="18" height="12" viewBox="0 0 18 12" fill="none" xmlns="http://www.w3.org/2000/svg">
<path d="M8.91072 0.818638H7.49777C7.42411 0.818638 7.36384 0.878906 7.36384 0.952567V8.54632H7.23661L1.97768 0.876674C1.95313 0.84096 1.91071 0.818638 1.8683 0.818638H0.383929C0.310268 0.818638 0.25 0.878906 0.25 0.952567V11.3097C0.25 11.3834 0.310268 11.4436 0.383929 11.4436H1.78348C1.85714 11.4436 1.91741 11.3834 1.91741 11.3097V3.61105H2.04464L7.36161 11.3856C7.38616 11.4213 7.42857 11.4436 7.47322 11.4436H8.91072C8.98438 11.4436 9.04464 11.3834 9.04464 11.3097V0.952567C9.04464 0.878906 8.98438 0.818638 8.91072 0.818638ZM17.3482 10.0374H10.5625C10.4643 10.0374 10.3839 10.1177 10.3839 10.216V11.2874C10.3839 11.3856 10.4643 11.466 10.5625 11.466H17.3482C17.4464 11.466 17.5268 11.3856 17.5268 11.2874V10.216C17.5268 10.1177 17.4464 10.0374 17.3482 10.0374ZM13.9509 8.63114C15.1317 8.63114 16.0759 8.24721 16.7679 7.47712C17.4241 6.74275 17.75 5.78516 17.75 4.60212C17.75 3.41685 17.4241 2.4481 16.7679 1.71596C16.0781 0.939174 15.1339 0.550781 13.9509 0.550781C12.7522 0.550781 11.8103 0.941406 11.1317 1.72935C10.4799 2.46819 10.1629 3.42355 10.1629 4.60212C10.1629 5.77176 10.4821 6.72712 11.1339 7.46596C11.817 8.24051 12.7634 8.63114 13.9509 8.63114ZM12.3549 2.74498C12.7321 2.28516 13.2545 2.05525 13.9487 2.05525C14.6518 2.05525 15.1719 2.26953 15.5335 2.7048C15.8996 3.15792 16.0893 3.78962 16.0893 4.59989C16.0893 5.41016 15.9018 6.03069 15.5357 6.47266C15.1674 6.90569 14.6429 7.12444 13.9487 7.12444C13.2522 7.12444 12.721 6.89453 12.3549 6.44587C11.9911 5.99721 11.808 5.39007 11.808 4.60212C11.8103 3.80301 11.9911 3.19587 12.3549 2.74498Z" fill="#1890FF"/>
</svg>
